<svg width="32" height="24" viewBox="0 0 32 24" fill="none" xmlns="http://www.w3.org/2000/svg">
<g id="Group 2">
<path id="Vector" d="M32 2C32 0.89375 30.9786 0 29.7143 0H2.28571C1.02143 0 0 0.89375 0 2C0 3.10625 1.02143 4 2.28571 4H29.7143C30.9786 4 32 3.10625 32 2ZM32 22C32 20.8937 30.9786 20 29.7143 20H2.28571C1.02143 20 0 20.8937 0 22C0 23.1063 1.02143 24 2.28571 24H29.7143C30.9786 24 32 23.1063 32 22Z" fill="#232026"/>
<path id="Vector_2" opacity="0.4" d="M0 12C0 10.8937 1.02143 10 2.28571 10H29.7143C30.9786 10 32 10.8937 32 12C32 13.1063 30.9786 14 29.7143 14H2.28571C1.02143 14 0 13.1063 0 12Z" fill="#7C51A1"/>
</g>
</svg>
