<svg  viewBox="0 0 756 233" fill="none" xmlns="http://www.w3.org/2000/svg">
<g opacity="0.2">
<path d="M366.937 164.464C364.585 164.464 362.672 162.552 362.672 160.199C362.672 157.847 364.585 155.932 366.937 155.932C369.29 155.932 371.205 157.847 371.205 160.199C371.205 162.552 369.29 164.464 366.937 164.464ZM366.937 151.664C362.232 151.664 358.405 155.494 358.405 160.199C358.405 164.904 362.232 168.732 366.937 168.732C371.642 168.732 375.472 164.904 375.472 160.199C375.472 155.494 371.642 151.664 366.937 151.664Z" fill="#77579E"/>
<path d="M379.737 185.799C378.562 185.799 377.605 184.842 377.605 183.664C377.605 182.489 378.562 181.532 379.737 181.532C380.915 181.532 381.872 182.489 381.872 183.664C381.872 184.842 380.915 185.799 379.737 185.799ZM379.737 177.264C376.21 177.264 373.337 180.137 373.337 183.664C373.337 187.194 376.21 190.064 379.737 190.064C383.267 190.064 386.137 187.194 386.137 183.664C386.137 180.137 383.267 177.264 379.737 177.264Z" fill="#77579E"/>
<path d="M392.537 134.599C391.362 134.599 390.405 133.642 390.405 132.464C390.405 131.289 391.362 130.332 392.537 130.332C393.715 130.332 394.672 131.289 394.672 132.464C394.672 133.642 393.715 134.599 392.537 134.599ZM392.537 126.064C389.01 126.064 386.137 128.937 386.137 132.464C386.137 135.994 389.01 138.864 392.537 138.864C396.067 138.864 398.937 135.994 398.937 132.464C398.937 128.937 396.067 126.064 392.537 126.064Z" fill="#77579E"/>
<path d="M635.48 87.6642H537.815V79.3316H635.547V87.6691C635.525 87.6691 635.502 87.6642 635.48 87.6642ZM637.632 53.7316C650.46 53.7316 660.897 64.1692 660.897 76.9992C660.897 89.3567 651.215 99.4916 639.037 100.222C639.572 98.6666 639.942 97.0366 640.107 95.3466C649.15 94.1316 656.15 86.3692 656.15 76.9992C656.15 66.7892 647.842 58.4816 637.632 58.4816C628.212 58.4816 620.417 65.5542 619.265 74.6642H614.48C615.655 62.9267 625.59 53.7316 637.632 53.7316ZM637.882 74.6642H623.575C624.692 67.9142 630.567 62.7492 637.632 62.7492C645.49 62.7492 651.882 69.1417 651.882 76.9992C651.882 83.9742 646.842 89.7916 640.215 91.0091V76.9992C640.215 75.7092 639.17 74.6642 637.882 74.6642ZM475.192 62.0642C475.145 59.3417 475.117 56.5641 475.107 53.7316H516.517C516.507 56.5641 516.477 59.3417 516.432 62.0642H475.192ZM349.952 202.864L349.925 86.6441L365.602 70.9642L382.197 87.5591C382.597 87.9591 383.14 88.1841 383.705 88.1841H409.215L409.242 202.864H349.952ZM405.252 83.9166H384.587L381.97 81.2966L392.3 70.9642L405.252 83.9166ZM409.207 53.7316L409.212 81.8441L393.81 66.4392C393.41 66.0392 392.867 65.8142 392.3 65.8142C391.735 65.8142 391.192 66.0392 390.792 66.4392L378.952 78.2791L367.112 66.4392C366.712 66.0392 366.17 65.8142 365.602 65.8142C365.037 65.8142 364.495 66.0392 364.095 66.4392L349.922 80.6117L349.917 53.7316H409.207ZM411.777 27.8166C424.605 27.8166 435.042 38.2541 435.045 51.0816C435.042 63.2041 425.725 73.1891 413.877 74.2541V69.4791C423.102 68.4316 430.295 60.5841 430.295 51.0841C430.295 40.8716 421.987 32.5642 411.777 32.5642C402.247 32.5667 394.38 39.8017 393.372 49.0642H388.597C389.625 37.1767 399.627 27.8166 411.777 27.8166ZM436.542 16.8242C440.55 16.8242 443.81 20.0841 443.81 24.0916C443.81 28.0991 440.55 31.3591 436.542 31.3591C432.535 31.3591 429.275 28.0991 429.275 24.0916C429.275 20.0841 432.535 16.8242 436.542 16.8242ZM413.872 51.3992C413.872 50.1092 412.827 49.0642 411.54 49.0642H397.672C398.655 42.1592 404.605 36.8316 411.777 36.8316C419.635 36.8316 426.027 43.2241 426.027 51.0841C426.027 58.2266 420.742 64.1591 413.875 65.1791L413.872 51.3992ZM226.467 202.864L222.197 172.972C222.305 172.987 222.415 172.999 222.527 172.999H235.572C236.137 172.999 236.68 172.774 237.08 172.374L253.672 155.779L270.267 172.374C270.667 172.774 271.21 172.999 271.775 172.999H310.42C310.532 172.999 310.642 172.987 310.75 172.972L306.477 202.864H226.467ZM293.322 168.732H272.657L270.04 166.112L280.37 155.779L293.322 168.732ZM308.35 143.332C308.96 143.377 309.59 143.404 310.237 143.404C310.835 143.404 311.447 143.382 312.07 143.332H314.982L311.325 168.937C311.05 168.807 310.745 168.732 310.42 168.732H299.357L281.88 151.254C281.48 150.854 280.937 150.629 280.37 150.629C279.805 150.629 279.262 150.854 278.862 151.254L267.022 163.094L255.182 151.254C254.782 150.854 254.24 150.629 253.672 150.629C253.107 150.629 252.565 150.854 252.165 151.254L234.687 168.732H222.527C222.202 168.732 221.897 168.807 221.622 168.937L217.965 143.332H308.35ZM278.855 120.162C281.07 120.074 284.95 120.184 288.612 121.569C288.375 121.927 288.24 122.359 288.255 122.822L288.48 129.784L281.517 129.559C281.052 129.542 280.622 129.677 280.265 129.914C278.88 126.252 278.77 122.372 278.855 120.162ZM296.567 137.864C294.215 138.524 288.067 139.649 283.502 135.082C283.112 134.694 282.757 134.282 282.427 133.857L290.617 134.122C290.64 134.122 290.662 134.122 290.685 134.122C291.25 134.122 291.792 133.897 292.195 133.497C292.61 133.079 292.837 132.509 292.817 131.919L292.552 123.732C292.98 124.062 293.39 124.417 293.78 124.807C298.365 129.392 297.24 135.507 296.567 137.864ZM305.475 120.384V133.014C305.475 134.192 306.43 135.147 307.607 135.147H320.235C317.88 137.232 315 138.412 311.637 138.664H308.767C306.29 138.489 304.205 137.907 303.085 137.534C302.177 134.822 300.055 126.519 305.475 120.384ZM326.33 114.289C326.505 116.184 326.65 119.464 326.112 123.037H317.585V114.507C321.155 113.969 324.435 114.114 326.33 114.289ZM309.74 117.019C310.89 116.387 312.097 115.884 313.317 115.489V125.169C313.317 126.347 314.272 127.302 315.452 127.302H325.13C324.735 128.524 324.232 129.729 323.6 130.879H309.74V117.019ZM190.045 87.6642L196.48 79.3316H210.832L205.087 87.6642H190.045ZM128.125 87.6642L122.382 79.3316H191.09L184.652 87.6642H128.125ZM170.64 118.379C166.522 118.379 163.172 115.029 163.172 110.912C163.172 106.794 166.522 103.444 170.64 103.444C174.757 103.444 178.107 106.794 178.107 110.912C178.107 115.029 174.757 118.379 170.64 118.379ZM482.17 37.3367C481.077 36.1517 480.467 34.6341 480.45 33.0341C480.432 31.3641 481.065 29.8017 482.23 28.6367C484.605 26.2617 488.497 26.2767 490.995 28.6367C494.392 32.1967 495.752 36.9766 495.055 41.4591C490.547 42.1616 485.735 40.7817 482.17 37.3367ZM752.91 228.264H622.947C606.59 228.264 593.282 214.957 593.282 198.599V155.099C602.152 152.247 608.125 144.124 608.212 134.809L610.74 120.497C610.762 120.364 610.775 120.227 610.775 120.092C610.775 117.144 613.172 114.744 616.122 114.744H618.682C626.297 114.744 632.995 110.769 636.825 104.787C637.077 104.879 637.347 104.932 637.632 104.932C653.035 104.932 665.565 92.4017 665.565 76.9992C665.565 61.5967 653.035 49.0642 637.632 49.0642C623.015 49.0642 610.985 60.3517 609.797 74.6642H535.482C534.192 74.6642 533.147 75.7092 533.147 76.9992V93.2117C533.147 105.087 542.807 114.744 554.682 114.744H557.667C560.617 114.744 563.015 117.144 563.015 120.092C563.015 120.207 563.022 120.319 563.04 120.432L565.15 134.774C565.225 144.029 571.31 152.272 580.082 155.094V198.599C580.082 214.957 566.772 228.264 550.415 228.264H532.077C515.72 228.264 502.412 214.957 502.412 198.599V152.777L505.652 149.182C505.717 149.107 505.78 149.029 505.835 148.949C518.525 130.634 521.187 85.7917 521.187 51.3992C521.187 50.1092 520.142 49.0642 518.855 49.0642H497.185C497.9 47.8692 498.475 46.6091 498.907 45.3091C501.642 44.3991 504.202 42.8666 506.367 40.7041C513.93 33.1391 513.817 20.7192 506.115 13.0142L502.815 16.3142C508.697 22.1992 508.812 31.6591 503.067 37.4041C502.102 38.3691 501.03 39.1667 499.887 39.8017C500.055 34.6842 498.225 29.4841 494.42 25.4691L494.425 25.4642C494.382 25.4217 494.337 25.3792 494.292 25.3367C494.21 25.2517 494.132 25.1641 494.047 25.0791L494.035 25.0916C489.707 21.1591 483.042 21.2267 478.93 25.3367C476.87 27.3967 475.755 30.1466 475.785 33.0816C475.812 35.8216 476.84 38.4141 478.685 40.4416L478.675 40.4517C478.74 40.5167 478.807 40.5766 478.875 40.6416C478.935 40.7041 478.995 40.7691 479.057 40.8316L479.067 40.8242C482.912 44.4717 487.847 46.3041 492.755 46.3041C492.97 46.3041 493.185 46.2967 493.4 46.2892C492.85 47.2742 492.18 48.2067 491.385 49.0642H472.77C471.482 49.0642 470.437 50.1092 470.437 51.3992C470.437 85.5792 473.107 130.219 485.837 148.777C485.89 148.854 485.95 148.929 486.012 148.999L489.212 152.624V198.599C489.212 206.424 485.915 213.859 479.927 219.532C474.07 225.082 466.175 228.264 458.265 228.264H413.915L413.88 78.9367C428.302 77.8592 439.71 65.7791 439.71 51.0816C439.71 45.5116 438.07 40.3166 435.247 35.9541C435.672 35.9991 436.105 36.0242 436.542 36.0242C443.122 36.0242 448.475 30.6716 448.475 24.0916C448.475 21.3766 447.562 18.8741 446.03 16.8666L458.735 4.16167C459.647 3.24917 459.647 1.77167 458.735 0.861666C457.825 -0.0508335 456.347 -0.0508335 455.435 0.861666L442.635 13.6617C442.6 13.6992 442.565 13.7392 442.532 13.7767C440.77 12.7492 438.725 12.1591 436.542 12.1591C429.962 12.1591 424.61 17.5116 424.61 24.0916C424.61 24.8791 424.687 25.6491 424.835 26.3966C420.935 24.3241 416.492 23.1492 411.777 23.1492C397.052 23.1492 384.955 34.6017 383.917 49.0642H347.582C346.962 49.0642 346.37 49.3117 345.932 49.7492C345.495 50.1867 345.25 50.7792 345.25 51.3992L345.292 228.264H307.562L319.982 141.329C320 141.222 320.005 141.112 320.005 141.004C321.442 140.207 322.852 139.172 324.182 137.839C333.542 128.477 330.84 112.467 330.72 111.789C330.55 110.824 329.795 110.069 328.83 109.899C328.152 109.779 312.142 107.074 302.78 116.437C300.695 118.524 299.332 120.799 298.475 123.089C298.057 122.552 297.595 122.022 297.08 121.507C289.45 113.879 276.882 115.607 276.352 115.682C275.33 115.832 274.527 116.634 274.377 117.657C274.3 118.187 272.575 130.754 280.202 138.382C280.3 138.479 280.395 138.572 280.492 138.664H215.272C214.597 138.664 213.955 138.959 213.51 139.469C213.067 139.982 212.867 140.659 212.962 141.329L225.382 228.264H202.872C186.515 228.264 173.207 214.957 173.207 198.599V142.152L217.195 78.3216C217.687 77.6091 217.742 76.6817 217.34 75.9142C216.935 75.1467 216.14 74.6642 215.272 74.6642H200.085L210.582 61.0742C211.302 60.1417 211.13 58.8016 210.197 58.0816C209.265 57.3616 207.927 57.5317 207.207 58.4642L194.692 74.6642H117.94C117.073 74.6642 116.277 75.1467 115.874 75.9142C115.471 76.6817 115.527 77.6091 116.019 78.3216L160.007 142.152V198.599C160.007 214.957 146.697 228.264 130.34 228.264H2.91064C1.62189 228.264 0.577393 229.309 0.577393 230.599C0.577393 231.887 1.62189 232.932 2.91064 232.932H130.34C149.272 232.932 164.672 217.529 164.672 198.599V141.424C164.672 140.952 164.53 140.492 164.262 140.102L131.065 91.9316H181.357L175.082 100.054C173.712 99.4916 172.212 99.1791 170.64 99.1791C164.17 99.1791 158.907 104.442 158.907 110.912C158.907 117.382 164.17 122.644 170.64 122.644C177.11 122.644 182.372 117.382 182.372 110.912C182.372 107.552 180.95 104.519 178.68 102.379L186.747 91.9316H202.147L168.952 140.102C168.682 140.492 168.54 140.952 168.54 141.424V198.599C168.54 217.529 183.942 232.932 202.872 232.932H228.072C228.75 232.932 229.392 232.639 229.835 232.127C230.28 231.617 230.48 230.939 230.382 230.269L227.077 207.132H305.87L302.562 230.269C302.467 230.939 302.667 231.617 303.11 232.127C303.555 232.639 304.197 232.932 304.872 232.932H347.625C348.245 232.932 348.837 232.687 349.275 232.249C349.712 231.812 349.96 231.217 349.96 230.599L349.952 207.132H409.245L409.25 230.599C409.25 231.887 410.295 232.932 411.582 232.932H458.265C477.57 232.932 493.877 217.209 493.877 198.599V151.742C493.877 151.172 493.67 150.622 493.295 150.197L489.607 146.019C485.682 140.242 482.475 131.002 480.065 118.557C477.387 104.734 475.785 87.2091 475.28 66.3316H516.347C515.847 87.3541 514.25 104.962 511.582 118.809C509.185 131.264 505.987 140.469 502.082 146.172L498.345 150.319C497.96 150.747 497.745 151.304 497.745 151.882V198.599C497.745 217.529 513.147 232.932 532.077 232.932H550.415C569.345 232.932 584.747 217.529 584.747 198.599V153.317C584.747 152.252 584.025 151.322 582.995 151.057L582.007 150.804C574.827 148.737 569.815 142.079 569.815 134.599C569.815 134.484 569.807 134.372 569.79 134.259L567.68 119.909C567.582 114.472 563.13 110.079 557.667 110.079H554.682C545.38 110.079 537.815 102.512 537.815 93.2117V91.9316H635.48C635.502 91.9316 635.525 91.9291 635.547 91.9291V93.2117C635.547 102.512 627.982 110.079 618.682 110.079H616.122C610.672 110.079 606.225 114.454 606.11 119.874L603.582 134.194C603.56 134.327 603.547 134.462 603.547 134.599C603.547 141.974 598.837 148.427 591.82 150.667L590.342 151.064C589.322 151.337 588.615 152.262 588.615 153.317V198.599C588.615 217.529 604.017 232.932 622.947 232.932H752.91C754.2 232.932 755.245 231.887 755.245 230.599C755.245 229.309 754.2 228.264 752.91 228.264Z" fill="#77579E"/>
</g>
</svg>
