<svg  viewBox="0 0 458 119" fill="none" xmlns="http://www.w3.org/2000/svg">
<g opacity="0.3">
<path d="M246.465 4.91378C245.001 4.79911 243.652 5.26711 242.623 6.11644C241.86 6.74711 240.724 6.60311 240.197 5.76578C239.252 4.26311 237.581 3.26444 235.675 3.26444C234.385 3.26444 233.204 3.72178 232.279 4.47777C231.508 5.10844 230.356 4.89511 229.813 4.06178C228.86 2.60044 227.213 1.63245 225.33 1.63245C224.042 1.63245 222.864 2.08844 221.939 2.84845C221.186 3.46578 220.024 3.30444 219.502 2.48178C218.453 0.829777 216.523 -0.207569 214.37 0.035099C211.629 0.343098 209.636 2.81244 209.636 5.5711V26.2618C209.636 27.6378 209.076 28.8844 208.172 29.7871C207.269 30.6898 206.023 31.2511 204.646 31.2511C200.396 31.2511 198.095 36.2138 200.832 39.4564L207.67 47.5631C208.541 48.5951 209.823 49.1911 211.174 49.1911H244.691C246.861 49.1911 248.736 47.6684 249.179 45.5418L249.643 43.3138C250.791 37.8244 251.367 32.2351 251.367 26.6258V10.4151C251.367 7.60178 249.267 5.14178 246.465 4.91378Z" fill="#57659E"/>
<path d="M245.705 56.4671H241.572C240.712 56.4671 240.181 57.4244 240.657 58.1404C241.377 59.2206 241.796 60.5164 241.796 61.9086C241.796 65.9164 238.325 69.1179 234.227 68.6684C231.188 68.3351 228.691 65.9242 228.263 62.8976C228.013 61.1326 228.444 59.4727 229.331 58.1391C229.808 57.4231 229.276 56.4671 228.417 56.4671H211.957C210.154 56.4671 208.692 57.9284 208.692 59.731V118.118H248.971V59.731C248.971 57.9284 247.509 56.4671 245.705 56.4671Z" fill="#57659E"/>
<path d="M426.335 31.0947C426.356 32.7093 426.921 34.2547 427.939 35.512L414.473 70.8015C413.808 72.5749 414.564 74.5879 416.185 75.3811C417.088 75.8348 418.147 75.8853 419.087 75.5171C420.031 75.1477 420.776 74.392 421.131 73.4477L433.493 41.048L445.853 73.4384C446.364 74.8296 447.709 75.7629 449.199 75.7629C449.725 75.7629 450.241 75.6468 450.731 75.4201L450.743 75.4135C452.417 74.6083 453.189 72.5733 452.503 70.7879L439.04 35.5133C440.315 33.9493 440.871 31.9347 440.571 29.8973C440.151 27.092 438.011 24.748 435.255 24.0667C433.999 23.7427 432.693 23.7693 431.451 24.14C428.096 21.5493 424.659 19.3867 421.228 17.7053C415.064 14.6693 408.425 13.0853 401.5 13L401.545 23.7053C406.957 23.372 412.432 24.264 417.381 26.2893C420.367 27.4973 423.376 29.1133 426.335 31.0947Z" fill="#77579E"/>
<path d="M401.5 13L401.545 23.7053H262V13H401.5Z" fill="#77579E"/>
<path d="M7.03472 75.3776C7.5144 75.6049 8.05077 75.7258 8.58768 75.7258C10.0772 75.7258 11.4302 74.7916 11.9541 73.4022L24.413 40.8862L36.8262 73.3034C37.5049 75.0723 39.4179 76.0869 41.1894 75.5997C42.1718 75.3254 42.9995 74.6509 43.4583 73.7477C43.916 72.8471 43.9736 71.7886 43.6147 70.8425L30.0095 35.3261C31.0361 34.0589 31.6051 32.5079 31.6271 30.8955C34.6156 28.9016 37.6461 27.2797 40.6435 26.0727C45.7382 23.9945 51.3693 23.1113 56.9401 23.5061V18.2258V12.7258C49.9233 12.7726 42.9848 14.4092 36.7643 17.4575C33.2961 19.1503 29.8358 21.3208 26.4715 23.9156C25.2066 23.5435 23.8887 23.5154 22.638 23.8393C19.8578 24.5271 17.7055 26.8796 17.2824 29.6911C16.9707 31.7345 17.5274 33.7578 18.8149 35.3302L5.26061 70.7258C4.55266 72.5366 5.33411 74.5799 7.03472 75.3776Z" fill="#77579E"/>
<path d="M66 12.7258H81H93.5H108H119.5H131.5H142H194V23.5061H142H130H119.5H108H93.5H81H66H56.9401V18.2258V12.7258H66Z" fill="#77579E"/>
<path d="M44.1659 80.8573C30.7768 84.7984 17.3883 84.7984 3.99979 80.8573C1.71645 80.1839 -0.423681 82.2 0.0721857 84.5281C2.43152 95.6213 12.2852 103.944 24.0826 103.944C35.8801 103.944 45.7342 95.6213 48.0935 84.5281C48.5883 82.2 46.4487 80.1839 44.1659 80.8573Z" fill="#77579E"/>
<path d="M453.165 81.1316C439.776 85.0726 426.388 85.0726 412.999 81.1316C410.716 80.4581 408.577 82.4742 409.072 84.8024C411.431 95.8956 421.285 104.218 433.083 104.218C444.88 104.218 454.733 95.8956 457.093 84.8024C457.588 82.4742 455.448 80.4581 453.165 81.1316Z" fill="#77579E"/>
</g>
</svg>
