<svg  viewBox="0 0 169 119" fill="none" xmlns="http://www.w3.org/2000/svg">
<g opacity="0.3">
<path d="M100.465 5.18801C99.0013 5.07334 97.652 5.54134 96.6227 6.39068C95.86 7.02134 94.724 6.87734 94.1973 6.04001C93.252 4.53734 91.5814 3.53867 89.6747 3.53867C88.3854 3.53867 87.204 3.996 86.2787 4.752C85.508 5.38267 84.356 5.16934 83.8126 4.33601C82.8604 2.87467 81.2126 1.90668 79.3303 1.90668C78.0422 1.90668 76.8636 2.36268 75.9391 3.12268C75.186 3.74001 74.024 3.57868 73.5022 2.75601C72.4531 1.10401 70.523 0.0666624 68.3698 0.309329C65.6292 0.617329 63.6364 3.08666 63.6364 5.84533V26.536C63.6364 27.912 63.076 29.1587 62.1724 30.0613C61.2694 30.964 60.0235 31.5253 58.6464 31.5253C54.3964 31.5253 52.0954 36.488 54.8318 39.7307L61.6698 47.8373C62.5412 48.8693 63.823 49.4653 65.174 49.4653H98.6907C100.861 49.4653 102.736 47.9427 103.179 45.816L103.643 43.588C104.791 38.0987 105.367 32.5093 105.367 26.9V10.6893C105.367 7.87601 103.267 5.41601 100.465 5.18801Z" fill="#57659E"/>
<path d="M99.7053 56.7413H95.572C94.712 56.7413 94.1813 57.6987 94.6573 58.4147C95.3773 59.4948 95.796 60.7907 95.796 62.1828C95.796 66.1907 92.3253 69.3921 88.2267 68.9427C85.188 68.6093 82.6907 66.1984 82.2625 63.1719C82.0131 61.4068 82.4437 59.7469 83.3312 58.4133C83.8079 57.6973 83.276 56.7413 82.4167 56.7413H65.9573C64.1536 56.7413 62.6921 58.2027 62.6921 60.0052V118.392H102.971V60.0052C102.971 58.2027 101.509 56.7413 99.7053 56.7413Z" fill="#57659E"/>
<path d="M137.093 31.0667C137.115 32.6813 137.68 34.2267 138.697 35.484L125.232 70.7735C124.567 72.5469 125.323 74.5599 126.944 75.3531C127.847 75.8068 128.905 75.8573 129.845 75.4891C130.789 75.1197 131.535 74.364 131.889 73.4197L144.252 41.02L156.612 73.4104C157.123 74.8016 158.468 75.7349 159.957 75.7349C160.484 75.7349 161 75.6188 161.489 75.3921L161.501 75.3855C163.176 74.5803 163.948 72.5453 163.261 70.7599L149.799 35.4853C151.073 33.9213 151.629 31.9067 151.329 29.8693C150.909 27.064 148.769 24.72 146.013 24.0387C144.757 23.7147 143.452 23.7413 142.209 24.112C138.855 21.5213 135.417 19.3587 131.987 17.6773C125.823 14.6413 119.184 13.0573 112.259 12.972L112.304 23.6773C117.716 23.344 123.191 24.236 128.14 26.2613C131.125 27.4693 134.135 29.0853 137.093 31.0667Z" fill="#77579E"/>
<path d="M7.17454 75.388C7.65054 75.6145 8.18281 75.7349 8.71561 75.7349C10.1937 75.7349 11.5364 74.8041 12.0563 73.4197L24.4197 41.0213L36.738 73.3213C37.4115 75.0839 39.3099 76.0948 41.0677 75.6093C42.0427 75.336 42.864 74.664 43.3193 73.764C43.7735 72.8667 43.8307 71.812 43.4745 70.8693L29.9735 35.4813C30.9921 34.2187 31.5568 32.6733 31.5787 31.0667C34.5443 29.08 37.5516 27.464 40.526 26.2613C45.5817 24.1907 51.1697 23.3107 56.6979 23.704L56.7573 12.9627C49.7943 13.0093 42.8495 14.64 36.6765 17.6773C33.2349 19.364 29.8011 21.5267 26.4625 24.112C25.2073 23.7413 23.8995 23.7133 22.6584 24.036C19.8995 24.7213 17.7636 27.0653 17.3437 29.8667C17.0344 31.9027 17.5869 33.9187 18.8645 35.4853L5.41401 70.7531C4.71148 72.5573 5.48694 74.5932 7.17454 75.388Z" fill="#77579E"/>
<path d="M44.4995 81.3453C31.1104 85.2864 17.7219 85.2864 4.33334 81.3453C2.05001 80.6719 -0.0901239 82.688 0.405743 85.0161C2.76508 96.1093 12.6188 104.432 24.4161 104.432C36.2136 104.432 46.0677 96.1093 48.4271 85.0161C48.9219 82.688 46.7823 80.6719 44.4995 81.3453Z" fill="#77579E"/>
<path d="M164.333 81.3453C150.944 85.2864 137.556 85.2864 124.167 81.3453C121.884 80.6719 119.745 82.688 120.24 85.0161C122.599 96.1093 132.453 104.432 144.251 104.432C156.048 104.432 165.901 96.1093 168.261 85.0161C168.756 82.688 166.616 80.6719 164.333 81.3453Z" fill="#77579E"/>
</g>
</svg>
