<svg width="129" height="33" viewBox="0 0 129 33" fill="none" xmlns="http://www.w3.org/2000/svg">
<g id="Group">
<g id="Group_2">
<path id="Vector" d="M9.11935 25.3694H7.65039C5.60236 25.3694 3.88863 24.6571 2.50902 23.2313C1.12868 21.8064 0.438965 20.0363 0.438965 17.9209V3.05849C0.438965 2.36885 0.644605 1.81171 1.05661 1.38597C1.46826 0.960982 2.0082 0.748204 2.6759 0.748204C3.34359 0.748204 3.88863 0.960982 4.31174 1.38597C4.7343 1.81171 4.94613 2.36885 4.94613 3.05849V17.9209C4.94613 18.7027 5.20746 19.3639 5.73066 19.9038C6.25331 20.4442 6.89352 20.7141 7.65039 20.7141H9.11935C9.78705 20.7141 10.3264 20.9327 10.7386 21.3693C11.1501 21.8064 11.3563 22.3693 11.3563 23.059C11.3563 23.7486 11.1501 24.3063 10.7386 24.7313C10.3264 25.1565 9.78705 25.3694 9.11935 25.3694Z" fill="#7C51A1"/>
</g>
<g id="Group_3">
<path id="Vector_2" d="M17.6651 10.1292C17.6651 8.58922 16.9082 7.81874 15.3948 7.81874C14.7271 7.81874 14.1872 8.03152 13.7755 8.4567C13.3635 8.88225 13.1579 9.43938 13.1579 10.1292V23.0605C13.1579 23.7501 13.3635 24.3078 13.7755 24.7328C14.1872 25.158 14.7271 25.371 15.3948 25.371C16.0625 25.371 16.6076 25.158 17.0307 24.7328C17.4532 24.3078 17.6651 23.7501 17.6651 23.0605V10.1292ZM17.3479 1.28393C17.8931 1.84764 18.1659 2.52018 18.1659 3.30137C18.1659 4.08312 17.8931 4.75566 17.3479 5.31861C16.8023 5.88213 16.1513 6.16352 15.3948 6.16352C14.638 6.16352 13.9868 5.88213 13.4418 5.31861C12.896 4.75566 12.6238 4.08312 12.6238 3.30137C12.6238 2.52018 12.896 1.84764 13.4418 1.28393C13.9868 0.720975 14.638 0.439214 15.3948 0.439214C16.1513 0.439214 16.8023 0.720975 17.3479 1.28393Z" fill="#2C2929"/>
</g>
<g id="Group_4">
<path id="Vector_3" d="M28.0145 25.439C25.6107 25.439 23.5909 24.589 21.9548 22.8874C20.319 21.1863 19.501 19.094 19.501 16.6112C19.501 14.1284 20.319 12.0423 21.9548 10.3525C23.5909 8.66287 25.6107 7.81797 28.0145 7.81797C30.4181 7.81797 32.4432 8.66287 34.0907 10.3525C35.7375 12.0423 36.5613 14.1284 36.5613 16.6112V30.0945C36.5613 30.7842 36.3495 31.3471 35.9269 31.7841C35.5038 32.2204 34.9588 32.4392 34.2911 32.4392C33.6232 32.4392 33.0834 32.2204 32.6718 31.7841C32.2598 31.3471 32.0541 30.7842 32.0541 30.0945V16.6112C32.0541 15.462 31.6587 14.4853 30.8691 13.6801C30.0787 12.8757 29.1271 12.4733 28.0145 12.4733C26.9013 12.4733 25.9555 12.8757 25.1766 13.6801C24.3974 14.4853 24.0081 15.462 24.0081 16.6112C24.0081 17.761 24.3974 18.7438 25.1766 19.5596C25.9555 20.3758 26.9013 20.7836 28.0145 20.7836C28.6822 20.7836 29.2274 20.9966 29.6503 21.4218C30.0729 21.8475 30.2847 22.4045 30.2847 23.0941C30.2847 23.7838 30.0729 24.3475 29.6503 24.7839C29.2274 25.2204 28.6822 25.439 28.0145 25.439Z" fill="#2C2929"/>
</g>
<g id="Group_5">
<path id="Vector_4" d="M42.8714 10.1969V17.9213C42.8714 18.703 43.1327 19.3641 43.6561 19.9041C44.1788 20.4445 44.8188 20.7145 45.5757 20.7145C46.3322 20.7145 46.9664 20.4445 47.4787 19.9041C47.9904 19.3641 48.2466 18.703 48.2466 17.9213V10.1281C48.2466 9.43822 48.4579 8.88109 48.8809 8.45535C49.3034 8.03036 49.8492 7.81758 50.5169 7.81758C51.1846 7.81758 51.724 8.03036 52.136 8.45535C52.5476 8.88109 52.7536 9.43822 52.7536 10.1281V17.9213C52.7536 20.0135 52.0635 21.778 50.6838 23.2144C49.3034 24.6514 47.6008 25.3698 45.5757 25.3698C43.5276 25.3698 41.8139 24.6574 40.4343 23.2317C39.054 21.8067 38.3643 20.0367 38.3643 17.9213V10.1969C38.3643 9.50721 38.5699 8.94425 38.9819 8.50723C39.3936 8.07077 39.9335 7.85198 40.6012 7.85198C41.2689 7.85198 41.8139 8.07077 42.237 8.50723C42.6596 8.94425 42.8714 9.50721 42.8714 10.1969Z" fill="#2C2929"/>
</g>
<g id="Group_6">
<path id="Vector_5" d="M59.0972 10.1292C59.0972 8.58922 58.3403 7.81874 56.827 7.81874C56.1593 7.81874 55.6193 8.03152 55.2077 8.4567C54.7957 8.88225 54.59 9.43938 54.59 10.1292V23.0605C54.59 23.7501 54.7957 24.3078 55.2077 24.7328C55.6193 25.158 56.1593 25.371 56.827 25.371C57.4947 25.371 58.0397 25.158 58.4628 24.7328C58.8854 24.3078 59.0972 23.7501 59.0972 23.0605V10.1292ZM58.78 1.28393C59.3252 1.84764 59.598 2.52018 59.598 3.30137C59.598 4.08312 59.3252 4.75566 58.78 5.31861C58.2344 5.88213 57.5835 6.16352 56.827 6.16352C56.0701 6.16352 55.419 5.88213 54.8739 5.31861C54.3282 4.75566 54.0559 4.08312 54.0559 3.30137C54.0559 2.52018 54.3282 1.84764 54.8739 1.28393C55.419 0.720975 56.0701 0.439214 56.827 0.439214C57.5835 0.439214 58.2344 0.720975 58.78 1.28393Z" fill="#2C2929"/>
</g>
<g id="Group_7">
<path id="Vector_6" d="M69.4466 12.4036C68.3334 12.4036 67.3877 12.812 66.6086 13.6278C65.8293 14.4439 65.4401 15.4268 65.4401 16.576C65.4401 17.7258 65.8293 18.7029 66.6086 19.5074C67.3877 20.3122 68.3334 20.7143 69.4466 20.7143C70.5593 20.7143 71.5108 20.3122 72.3012 19.5074C73.0908 18.7029 73.4863 17.7258 73.4863 16.576V3.05849C73.4863 2.39196 73.6974 1.84047 74.1207 1.40345C74.5432 0.96681 75.0772 0.748204 75.723 0.748204C76.3907 0.748204 76.9359 0.960982 77.359 1.38616C77.7816 1.81171 77.9934 2.36884 77.9934 3.05849V16.576C77.9934 19.0363 77.164 21.1165 75.5061 22.8176C73.8479 24.5193 71.8279 25.3694 69.4466 25.3694C67.0646 25.3694 65.0506 24.5193 63.4035 22.8176C61.7562 21.1165 60.9331 19.0363 60.9331 16.576C60.9331 14.0932 61.7509 12.0017 63.387 10.3002C65.0228 8.59915 67.0428 7.74823 69.4466 7.74823C70.1143 7.74823 70.6593 7.96702 71.0825 8.40367C71.505 8.8405 71.7168 9.40365 71.7168 10.0933C71.7168 10.7829 71.505 11.3406 71.0825 11.7656C70.6593 12.1914 70.1143 12.4036 69.4466 12.4036Z" fill="#2C2929"/>
</g>
<g id="Group_8">
<path id="Vector_7" d="M88.4748 25.3694H87.0059C84.9578 25.3694 83.2443 24.6571 81.8645 23.2313C80.4843 21.8064 79.7944 20.0363 79.7944 17.9209V3.05849C79.7944 2.36885 80.0003 1.81171 80.4121 1.38597C80.8237 0.960982 81.3637 0.748204 82.0315 0.748204C82.6991 0.748204 83.2443 0.960982 83.6672 1.38597C84.0898 1.81171 84.3016 2.36885 84.3016 3.05849V17.9209C84.3016 18.7027 84.5629 19.3639 85.0861 19.9038C85.609 20.4442 86.2492 20.7141 87.0059 20.7141H88.4748C89.1427 20.7141 89.6819 20.9327 90.0941 21.3693C90.5057 21.8064 90.7119 22.3693 90.7119 23.059C90.7119 23.7486 90.5057 24.3063 90.0941 24.7313C89.6819 25.1565 89.1427 25.3694 88.4748 25.3694Z" fill="#7C51A1"/>
</g>
<g id="Group_9">
<path id="Vector_8" d="M101.028 25.439C98.6241 25.439 96.6041 24.589 94.9683 22.8874C93.3324 21.1863 92.5144 19.0941 92.5144 16.6112C92.5144 14.1284 93.3324 12.0423 94.9683 10.3525C96.6041 8.66291 98.6241 7.818 101.028 7.818C103.432 7.818 105.457 8.66291 107.104 10.3525C108.751 12.0423 109.575 14.1284 109.575 16.6112V23.0598C109.575 23.7494 109.363 24.3071 108.94 24.7321C108.517 25.1573 107.972 25.3702 107.304 25.3702C106.637 25.3702 106.097 25.1573 105.685 24.7321C105.273 24.3071 105.068 23.7494 105.068 23.0598V16.6112C105.068 15.462 104.672 14.4853 103.882 13.6801C103.092 12.8758 102.141 12.4733 101.028 12.4733C99.9147 12.4733 98.969 12.8758 98.1901 13.6801C97.4106 14.4853 97.0216 15.462 97.0216 16.6112C97.0216 17.761 97.4106 18.7439 98.1901 19.5596C98.969 20.3758 99.9147 20.7837 101.028 20.7837C101.696 20.7837 102.241 20.9966 102.664 21.4218C103.087 21.8476 103.298 22.4045 103.298 23.0942C103.298 23.7838 103.087 24.3475 102.664 24.784C102.241 25.2204 101.696 25.439 101.028 25.439Z" fill="#2C2929"/>
</g>
<g id="Group_10">
<path id="Vector_9" d="M119.892 7.74958C122.296 7.74958 124.321 8.60031 125.968 10.3014C127.615 12.003 128.439 14.0945 128.439 16.5774C128.439 19.0377 127.61 21.1179 125.952 22.819C124.293 24.5206 122.273 25.3708 119.892 25.3708C117.51 25.3708 115.496 24.5206 113.849 22.819C112.202 21.1179 111.379 19.0377 111.379 16.5774V3.05983C111.379 2.39331 111.59 1.84163 112.013 1.40461C112.435 0.968151 112.97 0.749547 113.616 0.749547C114.283 0.749547 114.829 0.962325 115.251 1.38732C115.674 1.81306 115.886 2.37019 115.886 3.05983V16.5774C115.886 17.7272 116.275 18.704 117.054 19.5087C117.833 20.3136 118.779 20.7154 119.892 20.7154C121.005 20.7154 121.956 20.3136 122.747 19.5087C123.536 18.704 123.932 17.7272 123.932 16.5774C123.932 15.4282 123.536 14.4453 122.747 13.629C121.956 12.8132 121.005 12.4049 119.892 12.4049C119.224 12.4049 118.685 12.1927 118.273 11.767C117.861 11.3418 117.655 10.7843 117.655 10.0946C117.655 9.40499 117.861 8.84184 118.273 8.40482C118.685 7.96837 119.224 7.74958 119.892 7.74958Z" fill="#2C2929"/>
</g>
<g id="Group_11">
<path id="Vector_10" d="M127.86 27.4747C127.857 27.4555 127.855 27.4365 127.853 27.4173H127.896C127.887 27.4374 127.878 27.4572 127.869 27.4773L127.86 27.4747Z" fill="#7C51A1"/>
</g>
</g>
</svg>
