<svg width="682" height="682" viewBox="0 0 682 682" fill="none" xmlns="http://www.w3.org/2000/svg">
<g opacity="0.5">
<path d="M341 682C529.329 682 682 529.329 682 341C682 152.671 529.329 0 341 0C152.671 0 0 152.671 0 341C0 529.329 152.671 682 341 682Z" fill="#57659E" fill-opacity="0.5"/>
<path d="M235.24 454.86C232.242 451.86 228.605 449.575 224.601 448.176C220.596 446.777 216.328 446.3 212.113 446.781C207.899 447.261 203.848 448.687 200.261 450.952C196.675 453.216 193.646 456.262 191.4 459.86L176.22 484.23C164.17 503.57 186.51 525.91 205.85 513.87L230.22 498.69C233.818 496.446 236.863 493.419 239.129 489.834C241.394 486.249 242.821 482.199 243.304 477.986C243.786 473.773 243.312 469.505 241.916 465.501C240.519 461.497 238.238 457.86 235.24 454.86Z" fill="white"/>
<path d="M248.36 464C244.514 462.207 240.313 461.306 236.07 461.363C231.828 461.42 227.652 462.435 223.856 464.33C220.06 466.226 216.741 468.954 214.146 472.312C211.551 475.669 209.748 479.569 208.87 483.72L202.94 511.81C198.24 534.1 226.88 547.46 240.94 529.52L258.64 506.92C261.257 503.58 263.085 499.692 263.989 495.546C264.893 491.401 264.849 487.105 263.861 482.978C262.873 478.852 260.965 475.002 258.281 471.716C255.597 468.43 252.206 465.792 248.36 464Z" fill="white"/>
<path d="M263.82 468.18C259.597 467.813 255.345 468.402 251.381 469.905C247.418 471.409 243.844 473.786 240.926 476.862C238.008 479.937 235.822 483.631 234.529 487.668C233.237 491.705 232.871 495.982 233.46 500.18L237.46 528.6C240.66 551.16 272.14 553.92 279.21 532.25L288.16 505C289.475 500.966 289.863 496.687 289.294 492.483C288.725 488.278 287.214 484.256 284.875 480.717C282.535 477.177 279.426 474.212 275.781 472.041C272.135 469.87 268.047 468.551 263.82 468.18Z" fill="white"/>
<path d="M279.77 466.79C275.671 467.888 271.873 469.897 268.659 472.668C265.445 475.439 262.899 478.9 261.209 482.793C259.52 486.686 258.732 490.91 258.903 495.15C259.075 499.39 260.202 503.536 262.2 507.28L275.71 532.6C286.44 552.71 316.96 544.53 316.2 521.76L315.2 493.07C315.057 488.832 313.961 484.681 311.991 480.927C310.021 477.172 307.23 473.91 303.824 471.384C300.419 468.858 296.487 467.133 292.322 466.337C288.157 465.542 283.867 465.697 279.77 466.79Z" fill="white"/>
<path d="M294.28 460C290.805 462.435 287.924 465.623 285.853 469.326C283.782 473.03 282.573 477.153 282.318 481.388C282.062 485.624 282.766 489.862 284.376 493.788C285.987 497.713 288.463 501.225 291.62 504.06L313 523.26C329.95 538.48 355.84 520.36 347.33 499.26L336.61 472.63C335.032 468.686 332.584 465.15 329.447 462.285C326.31 459.421 322.567 457.302 318.497 456.087C314.426 454.873 310.134 454.594 305.94 455.271C301.747 455.949 297.761 457.565 294.28 460Z" fill="white"/>
<path d="M230.08 395.82C227.646 399.299 224.458 402.184 220.753 404.258C217.049 406.333 212.923 407.544 208.685 407.8C204.447 408.057 200.205 407.353 196.277 405.741C192.349 404.129 188.836 401.65 186 398.49L166.82 377.13C151.6 360.13 169.73 334.29 190.82 342.79L217.46 353.51C221.4 355.089 224.932 357.538 227.794 360.674C230.655 363.809 232.771 367.551 233.985 371.618C235.198 375.686 235.477 379.975 234.801 384.166C234.125 388.356 232.511 392.34 230.08 395.82Z" fill="white"/>
<path d="M223.31 410.33C222.212 414.428 220.203 418.224 217.432 421.437C214.662 424.65 211.202 427.196 207.311 428.885C203.419 430.574 199.196 431.363 194.958 431.192C190.719 431.022 186.573 429.896 182.83 427.9L157.5 414.39C137.39 403.67 145.57 373.14 168.35 373.91L197.04 374.91C201.276 375.054 205.424 376.152 209.177 378.122C212.93 380.092 216.19 382.882 218.714 386.287C221.239 389.691 222.964 393.62 223.759 397.783C224.555 401.946 224.401 406.235 223.31 410.33Z" fill="white"/>
<path d="M221.92 426.28C222.287 430.503 221.698 434.755 220.195 438.719C218.691 442.682 216.314 446.256 213.238 449.174C210.163 452.092 206.469 454.278 202.432 455.571C198.395 456.863 194.118 457.229 189.92 456.64L161.5 452.64C138.94 449.43 136.19 417.95 157.85 410.88L185.14 401.97C189.169 400.662 193.441 400.28 197.639 400.85C201.836 401.421 205.851 402.93 209.385 405.266C212.919 407.602 215.881 410.704 218.051 414.342C220.222 417.98 221.544 422.061 221.92 426.28Z" fill="white"/>
<path d="M226.06 441.74C227.853 445.586 228.754 449.787 228.697 454.03C228.64 458.272 227.625 462.448 225.73 466.244C223.834 470.04 221.106 473.359 217.748 475.954C214.391 478.549 210.491 480.352 206.34 481.23L178.25 487.16C155.96 491.87 142.6 463.23 160.54 449.16L183.14 431.46C186.48 428.843 190.368 427.015 194.514 426.111C198.659 425.207 202.955 425.251 207.082 426.239C211.208 427.227 215.058 429.135 218.344 431.819C221.63 434.503 224.268 437.894 226.06 441.74Z" fill="white"/>
<path d="M549.15 413.39C541.71 405.86 533.5 398.86 523.82 394.59C501.4 384.68 475.5 390.87 451.82 397.21C455.311 391.147 457.178 384.286 457.24 377.29C479.17 369.1 490.24 352.09 494.84 329.98C495.71 325.76 492.84 320.65 488.63 319.92C477.51 318.03 465.71 318.63 455.13 322.82C455.53 301.51 440.65 276.2 427.28 262.82C413.91 249.44 388.59 234.57 367.28 234.96C371.47 224.38 371.64 212.7 369.75 201.58C369.03 197.33 364.35 194.38 360.12 195.25C338 199.82 321 210.93 312.81 232.87C305.817 232.922 298.958 234.786 292.9 238.28C299.23 214.6 305.42 188.7 295.52 166.28C291.24 156.61 284.24 148.39 276.72 140.96C241.2 105.87 112.72 76.65 119.44 128.1C121.92 147.21 143.65 153.36 159.33 153.15C149 152.94 139.53 161.36 137.43 171.47C135.33 181.58 140.01 192.47 148.11 198.88C156.21 205.29 167.19 207.45 177.38 205.88C172.814 207.55 168.734 210.328 165.505 213.963C162.277 217.599 160.001 221.979 158.882 226.71C157.763 231.442 157.836 236.377 159.094 241.074C160.352 245.77 162.756 250.081 166.09 253.62C174 262 186.15 265 197.66 266.33C193.865 269.71 191.19 274.165 189.991 279.104C188.792 284.042 189.127 289.229 190.951 293.972C192.775 298.716 196 302.79 200.199 305.654C204.397 308.517 209.368 310.033 214.45 310C175.95 369.63 195.53 434.94 222.4 464.79C222.4 464.79 225.29 467.79 225.32 467.71C255.17 494.58 320.48 514.16 380.12 475.66C380.089 480.739 381.606 485.708 384.469 489.904C387.332 494.1 391.405 497.324 396.146 499.147C400.887 500.97 406.071 501.306 411.008 500.11C415.945 498.913 420.4 496.242 423.78 492.45C425.11 503.97 428.09 516.07 436.52 524.02C440.059 527.354 444.37 529.758 449.066 531.016C453.763 532.274 458.698 532.347 463.43 531.228C468.161 530.109 472.541 527.833 476.177 524.605C479.812 521.376 482.59 517.296 484.26 512.73C482.66 522.93 484.81 533.92 491.26 542.01C497.71 550.1 508.57 554.79 518.67 552.68C528.77 550.57 537.16 541.1 537 530.78C536.79 546.46 542.95 568.18 562.06 570.66C613.45 577.34 584.23 448.9 549.15 413.39Z" fill="#77579E"/>
<path d="M254.33 146.73C254.33 146.73 244.33 150.58 244.69 159.63C245.01 167.63 254.04 175.53 253.81 175.84C235.66 199.71 267.91 217.61 267.91 217.61C267.91 217.61 259.3 237.9 272.54 251.15C278.958 246.314 285.75 241.994 292.85 238.23C298.97 215.12 305.1 187.99 295.48 166.23C291.21 156.56 284.2 148.34 276.68 140.91C272.374 136.77 267.629 133.112 262.53 130C248.09 130.44 254.33 146.73 254.33 146.73Z" fill="white"/>
<path d="M259.66 227.53C252.47 227.81 239.46 225.88 233.08 214.28C223.69 197.2 238.19 181.66 240.15 179.66C233.73 175.19 218.08 155.42 240.25 143.44C234.19 134.28 237.77 125.01 248.92 122.55C239.729 118.099 230.24 114.293 220.52 111.16C218.783 111.69 217.218 112.673 215.988 114.009C214.757 115.345 213.905 116.985 213.52 118.76C210.75 131.03 228.89 141.82 228.89 141.82C228.89 141.82 203 149 207.22 165.33C211.29 181.08 231.68 180.79 231.68 180.79C231.68 180.79 206.16 197 215.23 218.42C223.5 237.95 243.16 234.81 250.53 234.72C250.83 234.72 238.9 252.42 253.11 268.55C255.16 266.55 261.24 261.06 263.33 259.11C254.74 252 252.5 237 259.66 227.53Z" fill="white"/>
<path d="M187 146.46C187 146.46 165.24 155.38 169.47 173.94C173.64 192.22 200.47 193.58 200.47 193.58C200.47 193.58 175.65 211.58 187.3 235.53C196.7 254.84 219.75 252.6 219.75 252.6C219.75 252.6 205.07 268.46 217.58 284.46C221.24 289.14 225.58 290.4 230.7 291.78C235.44 286.56 236.76 285.38 243.02 278.98C227.14 273.09 227.55 254.48 238.31 242.73C226.45 243.64 212.31 242.33 204.54 226.16C196.77 209.99 205.48 196.71 212.77 187.63C205.29 186.31 191.39 182.11 188.41 166.98C186.06 154.98 207.98 143.06 207.98 143.06C207.98 143.06 188.98 138.71 189.83 122.65C190.16 116.08 196.39 109.12 202.32 106.05C196.93 104.94 191.23 103.45 187.25 102.78C173.99 106.54 169.99 115.68 170.25 122.09C170.9 138.38 187 146.46 187 146.46Z" fill="white"/>
<path d="M205.41 291.52C199.25 283.38 201.94 269.16 207.06 260.72C198.89 258.93 182.48 256.42 174.45 239.2C167.45 224.26 176.27 210.7 183.59 202.2C173 200.97 157.91 194.66 153.09 179.11C149.6 167.86 156.57 158.52 167.03 152.11C143.94 143.6 137.09 110.67 169.55 100.7C139.55 98.47 116.36 105.48 119.3 128.12C121.78 147.23 143.51 153.39 159.19 153.17C148.87 152.97 139.4 161.39 137.29 171.5C135.18 181.61 139.88 192.5 147.97 198.91C156.06 205.32 167.05 207.47 177.25 205.91C172.691 207.583 168.618 210.361 165.396 213.995C162.174 217.629 159.904 222.006 158.79 226.733C157.675 231.46 157.75 236.389 159.008 241.08C160.267 245.771 162.669 250.076 166 253.61C174 262.05 186.06 265.03 197.57 266.36C193.789 269.739 191.125 274.188 189.932 279.116C188.739 284.045 189.072 289.219 190.888 293.954C192.704 298.688 195.917 302.758 200.1 305.624C204.283 308.49 209.239 310.016 214.31 310C213.97 310.54 218.08 305.66 224.86 298.12C218.8 300.21 210.75 298.58 205.41 291.52Z" fill="white"/>
<path d="M543.37 435.77C543.37 435.77 539.53 445.77 530.47 445.41C522.47 445.09 514.57 436.06 514.27 436.29C490.39 454.44 472.49 422.19 472.49 422.19C472.49 422.19 452.2 430.81 438.95 417.56C443.793 411.15 448.113 404.361 451.87 397.26C474.99 391.13 502.11 385 523.87 394.62C533.54 398.9 541.76 405.9 549.19 413.42C553.311 417.733 556.955 422.477 560.06 427.57C559.67 442 543.37 435.77 543.37 435.77Z" fill="white"/>
<path d="M462.57 430.44C462.29 437.64 464.22 450.64 475.82 457.02C492.9 466.41 508.44 451.91 510.45 449.95C514.91 456.37 534.68 472.02 546.66 449.85C555.82 455.91 565.1 452.33 567.55 441.18C572.001 450.371 575.807 459.86 578.94 469.58C578.415 471.318 577.434 472.884 576.099 474.115C574.765 475.346 573.125 476.197 571.35 476.58C559.08 479.35 548.29 461.21 548.29 461.21C548.29 461.21 541.07 487.1 524.77 482.88C509.02 478.81 509.31 458.42 509.31 458.42C509.31 458.42 493.07 483.94 471.68 474.87C452.15 466.6 455.29 446.95 455.38 439.57C455.38 439.27 437.69 451.2 421.55 436.99C423.55 434.94 429.04 428.87 431 426.77C438.14 435.36 453.09 437.6 462.57 430.44Z" fill="white"/>
<path d="M543.64 503.12C543.64 503.12 534.72 524.88 516.16 520.64C497.88 516.47 496.53 489.64 496.53 489.64C496.53 489.64 478.53 514.47 454.53 502.81C435.22 493.41 437.47 470.36 437.47 470.36C437.47 470.36 421.6 485.04 405.6 472.54C400.92 468.87 399.67 464.49 398.28 459.42C403.5 454.67 404.68 453.35 411.08 447.09C416.98 462.97 435.58 462.56 447.33 451.81C446.42 463.66 447.73 477.76 463.9 485.57C480.07 493.38 493.35 484.63 502.43 477.34C503.75 484.82 507.95 498.72 523.08 501.7C535.08 504.06 547 482.13 547 482.13C547 482.13 551.36 501.13 567.41 500.28C573.99 499.95 580.94 493.72 584.01 487.79C585.12 493.18 586.61 498.88 587.28 502.86C583.52 516.12 574.39 520.12 567.98 519.86C551.72 519.21 543.64 503.12 543.64 503.12Z" fill="white"/>
<path d="M398.58 484.7C406.73 490.86 420.94 488.16 429.38 483.04C431.17 491.21 433.69 507.62 450.9 515.65C465.84 522.65 479.4 513.83 487.9 506.51C489.15 517.1 495.46 532.2 511 537C522.26 540.49 531.59 533.51 538 523.06C546.5 546.14 579.43 553 589.4 520.53C591.63 550.53 584.62 573.72 561.98 570.78C542.87 568.3 536.71 546.57 536.93 530.9C537.14 541.22 528.71 550.69 518.61 552.79C508.51 554.89 497.61 550.21 491.2 542.12C484.79 534.03 482.63 523.04 484.2 512.84C482.531 517.406 479.755 521.486 476.12 524.715C472.486 527.944 468.106 530.22 463.375 531.339C458.644 532.458 453.71 532.385 449.014 531.127C444.318 529.869 440.008 527.465 436.47 524.13C428.03 516.18 425.05 504.07 423.72 492.56C420.34 496.351 415.885 499.023 410.948 500.22C406.011 501.416 400.827 501.08 396.086 499.257C391.345 497.434 387.272 494.21 384.409 490.014C381.546 485.818 380.029 480.85 380.06 475.77C379.53 476.11 384.4 472 391.95 465.22C389.89 471.3 391.52 479.35 398.58 484.7Z" fill="white"/>
<path d="M461.75 364.29C475.99 367.93 494 330.19 487.75 325.51C484.6 323.16 478.62 323.93 474.99 324.3C470.51 324.75 466.14 325.69 462.33 328.21C457.79 331.21 456.16 335.38 455.59 339.98C455.62 343.47 451.92 361.77 461.75 364.29Z" fill="#96948D"/>
<path d="M325.82 228.35C322.17 214.11 359.92 196.1 364.59 202.35C366.94 205.5 366.17 211.48 365.8 215.11C365.35 219.59 364.41 223.96 361.89 227.78C358.89 232.31 354.72 233.94 350.13 234.51C346.63 234.49 328.33 238.19 325.82 228.35Z" fill="#96948D"/>
<path d="M431.17 318.24C423.613 309.839 413.591 304.046 402.54 301.69C399.077 300.939 395.903 299.208 393.398 296.702C390.892 294.197 389.161 291.023 388.41 287.56C386.479 278.607 382.291 270.296 376.245 263.415C370.2 256.535 362.496 251.314 353.866 248.247C345.235 245.18 335.964 244.37 326.932 245.893C317.901 247.415 309.408 251.221 302.26 256.948C295.112 262.675 289.546 270.134 286.091 278.616C282.635 287.098 281.405 296.323 282.516 305.414C283.627 314.506 287.042 323.163 292.439 330.563C297.835 337.964 305.033 343.863 313.35 347.7C326.19 353.615 336.495 363.92 342.41 376.76C345.652 383.794 350.375 390.045 356.256 395.085C362.137 400.125 369.038 403.835 376.486 405.961C383.934 408.087 391.753 408.578 399.408 407.402C407.064 406.226 414.375 403.41 420.841 399.147C427.308 394.884 432.777 389.274 436.874 382.701C440.971 376.128 443.6 368.748 444.581 361.065C445.562 353.382 444.872 345.578 442.557 338.186C440.242 330.795 436.358 323.991 431.17 318.24Z" fill="white"/>
<path d="M435.25 317.49C427.255 308.597 416.61 302.514 404.89 300.14C401.219 299.383 397.851 297.564 395.204 294.91C392.557 292.256 390.747 288.883 390 285.21C387.626 273.49 381.543 262.845 372.65 254.85C350.72 235.05 316.43 235.85 294.65 256.69C271.05 279.24 270.35 316.28 292.85 338.78C297.594 343.542 303.165 347.401 309.29 350.17C322.913 356.33 333.826 367.239 339.99 380.86C342.755 386.984 346.611 392.555 351.37 397.3C373.87 419.8 410.92 419.11 433.46 395.51C454.23 373.71 455.06 339.43 435.25 317.49ZM352 393.43C347.51 388.944 343.868 383.682 341.25 377.9C335.425 365.033 325.117 354.725 312.25 348.9C306.465 346.282 301.2 342.64 296.71 338.15C275.46 316.89 276.11 281.88 298.41 260.58C319 240.91 351.41 240.13 372.12 258.84C380.521 266.398 386.271 276.456 388.52 287.53C389.227 291.006 390.941 294.197 393.448 296.705C395.955 299.214 399.145 300.93 402.62 301.64C413.677 303.881 423.721 309.616 431.27 318C449.98 338.72 449.2 371.12 429.53 391.71C408.23 414 373.22 414.69 352 393.43Z" fill="#96948D"/>
<path d="M417.121 386.7C431.299 377.936 435.689 359.338 426.925 345.16C418.162 330.982 399.564 326.592 385.386 335.356C371.208 344.119 366.818 362.717 375.582 376.895C384.345 391.074 402.943 395.463 417.121 386.7Z" fill="#96948D"/>
<path d="M423.582 375.811C431.731 363.475 428.338 346.868 416.002 338.719C403.666 330.569 387.059 333.963 378.91 346.299C370.761 358.635 374.154 375.241 386.49 383.391C398.826 391.54 415.433 388.146 423.582 375.811Z" fill="#FFD60B"/>
<path d="M411.34 371.15C409.343 373.148 406.799 374.509 404.029 375.06C401.258 375.612 398.387 375.329 395.777 374.249C393.167 373.168 390.937 371.338 389.367 368.989C387.798 366.641 386.96 363.88 386.96 361.055C386.96 358.23 387.798 355.469 389.367 353.121C390.937 350.772 393.167 348.942 395.777 347.861C398.387 346.781 401.258 346.498 404.029 347.05C406.799 347.601 409.343 348.962 411.34 350.96C414.014 353.639 415.516 357.27 415.516 361.055C415.516 364.84 414.014 368.471 411.34 371.15Z" fill="black"/>
<path d="M401.88 358.59C401.119 359.351 400.15 359.87 399.095 360.08C398.039 360.29 396.945 360.183 395.951 359.771C394.957 359.36 394.107 358.662 393.509 357.768C392.911 356.873 392.592 355.821 392.592 354.745C392.592 353.669 392.911 352.617 393.509 351.722C394.107 350.827 394.957 350.13 395.951 349.719C396.945 349.307 398.039 349.2 399.095 349.41C400.15 349.62 401.119 350.139 401.88 350.9C402.899 351.92 403.472 353.303 403.472 354.745C403.472 356.187 402.899 357.57 401.88 358.59Z" fill="white"/>
<path d="M411.32 361.37C410.883 361.809 410.325 362.108 409.718 362.229C409.11 362.351 408.48 362.289 407.908 362.053C407.335 361.816 406.846 361.415 406.502 360.9C406.157 360.385 405.974 359.779 405.974 359.16C405.974 358.541 406.157 357.935 406.502 357.42C406.846 356.905 407.335 356.504 407.908 356.267C408.48 356.031 409.11 355.969 409.718 356.091C410.325 356.212 410.883 356.511 411.32 356.95C411.905 357.537 412.234 358.331 412.234 359.16C412.234 359.989 411.905 360.783 411.32 361.37Z" fill="white"/>
<path d="M337.319 317.856C353.351 313.295 362.65 296.602 358.089 280.57C353.529 264.538 336.835 255.239 320.803 259.8C304.771 264.36 295.472 281.054 300.033 297.086C304.594 313.118 321.287 322.417 337.319 317.856Z" fill="#96948D"/>
<path d="M329.05 315.62C343.835 315.62 355.82 303.635 355.82 288.85C355.82 274.065 343.835 262.08 329.05 262.08C314.265 262.08 302.28 274.065 302.28 288.85C302.28 303.635 314.265 315.62 329.05 315.62Z" fill="#FFD60B"/>
<path d="M338.913 299.219C344.617 293.774 344.827 284.735 339.382 279.03C333.936 273.325 324.897 273.115 319.192 278.561C313.487 284.007 313.278 293.046 318.723 298.751C324.169 304.455 333.208 304.665 338.913 299.219Z" fill="black"/>
<path d="M331.52 288.22C330.761 288.979 330.244 289.947 330.034 291C329.825 292.054 329.932 293.145 330.343 294.137C330.754 295.13 331.45 295.978 332.343 296.574C333.236 297.171 334.286 297.489 335.36 297.489C336.434 297.489 337.484 297.171 338.377 296.574C339.27 295.978 339.966 295.13 340.377 294.137C340.788 293.145 340.895 292.054 340.686 291C340.476 289.947 339.959 288.979 339.2 288.22C338.696 287.716 338.097 287.316 337.438 287.043C336.779 286.77 336.073 286.629 335.36 286.629C334.647 286.629 333.941 286.77 333.282 287.043C332.623 287.316 332.024 287.716 331.52 288.22Z" fill="white"/>
<path d="M328.73 278.79C328.295 279.227 327.999 279.783 327.879 280.388C327.76 280.993 327.822 281.619 328.059 282.189C328.295 282.758 328.695 283.245 329.208 283.587C329.721 283.93 330.323 284.112 330.94 284.112C331.557 284.112 332.159 283.93 332.672 283.587C333.185 283.245 333.585 282.758 333.821 282.189C334.058 281.619 334.12 280.993 334.001 280.388C333.881 279.783 333.585 279.227 333.15 278.79C332.563 278.205 331.769 277.876 330.94 277.876C330.111 277.876 329.317 278.205 328.73 278.79Z" fill="white"/>
<path d="M349.24 340.86C344.33 336.06 334.93 335.86 328.34 345.65C324.06 352.02 322.74 358.44 323.42 363.73C323.51 364.486 323.849 365.191 324.383 365.734C324.917 366.276 325.616 366.627 326.37 366.73C331.5 367.39 338.13 366.04 344.45 361.8C354.28 355.17 354.05 345.77 349.24 340.86Z" fill="#CC8D54"/>
<path d="M278.2 346.52C275.63 349.1 272 349.63 270.09 347.73C268.18 345.83 268.72 342.18 271.29 339.61C273.86 337.04 277.5 336.5 279.41 338.41C281.32 340.32 280.78 344 278.2 346.52Z" fill="white"/>
<path d="M296.28 364.59C293.7 367.17 290.07 367.71 288.16 365.8C286.25 363.89 286.79 360.26 289.36 357.68C291.93 355.1 295.57 354.57 297.48 356.48C299.39 358.39 298.85 362 296.28 364.59Z" fill="white"/>
<path d="M314.35 382.67C311.77 385.24 308.14 385.78 306.23 383.87C304.32 381.96 304.86 378.33 307.44 375.75C310.02 373.17 313.64 372.64 315.55 374.55C317.46 376.46 316.92 380.09 314.35 382.67Z" fill="white"/>
<path d="M332.42 400.74C329.85 403.31 326.21 403.85 324.31 401.94C322.41 400.03 322.94 396.4 325.51 393.83C328.08 391.26 331.71 390.72 333.62 392.62C335.53 394.52 335 398.16 332.42 400.74Z" fill="white"/>
<path d="M350.49 419.608C347.92 422.4 344.29 422.986 342.38 420.911C340.47 418.837 341.01 414.894 343.58 412.102C346.15 409.311 349.78 408.724 351.69 410.788C353.6 412.852 353.06 416.816 350.49 419.608Z" fill="white"/>
<path d="M273.3 371.228C270.73 374.03 267.1 374.606 265.19 372.542C263.28 370.478 263.82 366.513 266.39 363.722C268.96 360.93 272.6 360.344 274.51 362.419C276.42 364.493 275.88 368.436 273.3 371.228Z" fill="white"/>
<path d="M291.38 389.297C288.8 392.1 285.17 392.686 283.26 390.612C281.35 388.537 281.89 384.594 284.46 381.792C287.03 378.99 290.67 378.414 292.58 380.489C294.49 382.563 294 386.506 291.38 389.297Z" fill="white"/>
<path d="M309.45 407.378C306.87 410.17 303.24 410.756 301.33 408.682C299.42 406.607 299.96 402.664 302.54 399.862C305.12 397.06 308.74 396.484 310.65 398.559C312.56 400.633 312 404.576 309.45 407.378Z" fill="white"/>
<path d="M327.52 425.448C324.95 428.24 321.31 428.826 319.41 426.752C317.51 424.677 318.03 420.734 320.61 417.942C323.19 415.151 326.81 414.554 328.72 416.628C330.63 418.703 330.09 422.646 327.52 425.448Z" fill="white"/>
<path d="M268.16 393.518C265.58 396.31 261.95 396.896 260.04 394.822C258.13 392.747 258.67 388.804 261.24 386.002C263.81 383.2 267.45 382.624 269.36 384.699C271.27 386.773 270.73 390.716 268.16 393.518Z" fill="white"/>
<path d="M286.23 411.588C283.65 414.38 280.02 414.966 278.11 412.891C276.2 410.817 276.74 406.874 279.32 404.083C281.9 401.291 285.52 400.694 287.43 402.768C289.34 404.843 288.8 408.786 286.23 411.588Z" fill="white"/>
<path d="M304.3 429.658C301.73 432.45 298.09 433.036 296.18 430.961C294.27 428.887 294.81 424.944 297.39 422.152C299.97 419.361 303.59 418.774 305.5 420.838C307.41 422.902 306.87 426.866 304.3 429.658Z" fill="white"/>
<path d="M263.26 417.417C260.68 420.22 257.05 420.806 255.14 418.732C253.23 416.657 253.77 412.714 256.34 409.912C258.91 407.11 262.55 406.534 264.46 408.609C266.37 410.683 265.83 414.626 263.26 417.417Z" fill="white"/>
<path d="M281.33 435.498C278.75 438.29 275.12 438.876 273.21 436.802C271.3 434.727 271.84 430.784 274.42 427.982C277 425.18 280.62 424.604 282.53 426.679C284.44 428.753 283.9 432.696 281.33 435.498Z" fill="white"/>
<path d="M288.811 477.294L212.797 401.28L158.159 455.918L234.173 531.932L288.811 477.294Z" fill="#FFDF5A" fill-opacity="0.8"/>
<path d="M233.31 471.615C233.04 471.31 230.66 470.395 230.38 470.09L234.53 531.874L234.88 532.23L237.04 530.045L233.31 471.615Z" fill="#EDCC3E"/>
<path d="M217.7 457.389L161.47 452.62L158.88 455.594L159.22 456.005L219.59 460.58C219.34 460.26 218 457.698 217.7 457.389Z" fill="#EDCC3E"/>
<path d="M158.87 455.22L234.88 532.23L229.48 460.417L158.87 455.22Z" fill="#FFDC48"/>
<path d="M227.97 462.221L233.13 530.457L234.88 532.23L229.48 460.417L158.87 455.22L161.3 457.682L227.97 462.221Z" fill="#FFE471"/>
<path d="M250.81 439.739L213.08 401.56C213.08 401.56 200.4 415.676 205.76 423.771C211.37 432.261 214.76 438.19 211.82 449.412C210.04 456.202 220.51 470.399 220.51 470.399C220.51 470.399 234.51 481.004 241.26 479.192C252.34 476.217 258.2 479.648 266.59 485.324C274.59 490.748 288.59 477.917 288.59 477.917L250.81 439.739Z" fill="#FFE783"/>
<path d="M286.89 476.248C283.27 479.283 272.84 487.045 266.53 482.845C258.43 477.462 252.76 474.224 241.84 477.371C235.23 479.283 221.71 469.195 221.71 469.195C221.71 469.195 211.71 455.514 213.62 448.815C216.73 437.765 213.53 432.028 208.21 423.842C204.06 417.447 211.76 406.893 214.73 403.23L213.08 401.56C213.08 401.56 200.4 415.676 205.76 423.771C211.37 432.261 214.76 438.19 211.82 449.412C210.04 456.202 220.51 470.399 220.51 470.399C220.51 470.399 234.51 481.004 241.26 479.192C252.34 476.217 258.2 479.648 266.59 485.324C274.59 490.748 288.59 477.917 288.59 477.917L286.89 476.248Z" fill="#FCF19F"/>
<path d="M266.62 485.276C258.23 479.601 252.37 476.171 241.28 479.146C234.57 480.957 220.54 470.354 220.54 470.354C220.54 470.354 210.06 456.191 211.85 449.372C214.79 438.152 211.4 432.224 205.79 423.746C201.23 416.857 209.71 405.627 212.36 402.42L213.08 401.56C213.08 401.56 198.76 417.332 204.08 425.426C209.69 433.914 213.13 439.801 210.19 451.011C208.4 457.809 218.88 472.003 218.88 472.003C218.88 472.003 232.88 482.596 239.62 480.795C250.71 477.76 256.53 481.29 264.91 486.966C272.91 492.389 288.5 477.861 288.5 477.861L287.65 478.599C284.52 481.311 273.43 489.89 266.62 485.276Z" fill="#EDCC3E"/>
<path d="M245.38 406.773C244.235 405.701 242.834 404.954 241.318 404.608C239.802 404.262 238.223 404.329 236.74 404.802C237.34 399.635 235.35 395.611 230.9 393.231C226.45 390.852 222.05 391.659 218.3 395.182C217.815 393.67 216.947 392.315 215.784 391.256C214.622 390.196 213.206 389.468 211.68 389.146C204.56 387.471 199.49 392.802 198.07 404.047C197.07 412.217 198.39 419.621 201.56 422.532C201.66 425.851 202.56 428.046 203.79 428.23C205.02 428.414 206.49 426.3 207.33 422.899C207.851 422.602 208.346 422.261 208.81 421.878C208.894 423.64 209.294 425.37 209.99 426.984C208.89 430.886 209.12 433.745 210.55 434.552C211.98 435.359 214.72 433.602 217.32 430.017C218.628 429.598 219.875 429.004 221.03 428.251C220.985 429.166 221.062 430.083 221.26 430.977C219.4 433.408 218.77 435.502 219.56 436.431C220.35 437.36 222.84 436.788 225.66 434.777C229.84 435.114 236.04 431.937 241.49 426.719C249.59 419.008 250.87 411.696 245.38 406.773Z" fill="#E2CD74"/>
<path d="M302.05 480.236C301.733 478.681 301.02 477.239 299.982 476.054C298.945 474.869 297.62 473.983 296.14 473.487C299.59 469.663 300.29 465.238 298.05 460.639C295.81 456.041 291.77 454.073 286.72 454.685C287.183 453.173 287.249 451.563 286.91 450.017C286.571 448.471 285.84 447.043 284.79 445.875C279.97 440.278 272.79 441.573 265.22 449.832C260.11 455.388 257 461.71 257.33 465.982C255.33 468.858 254.77 471.274 255.71 472.202C256.65 473.13 258.71 472.355 261.05 470.469C261.925 470.67 262.824 470.749 263.72 470.703C262.982 471.877 262.4 473.146 261.99 474.476C258.47 477.127 256.8 479.788 257.55 481.378C258.3 482.969 261.14 483.081 264.95 481.96C266.53 482.668 268.225 483.073 269.95 483.153C269.575 483.629 269.241 484.137 268.95 484.672C265.61 485.528 263.62 486.956 263.73 488.271C263.84 489.586 266.05 490.453 269.31 490.555C272.15 493.777 279.44 495.164 287.4 494.113C298.46 492.666 303.69 487.496 302.05 480.236Z" fill="#E2CD74"/>
<path d="M246.79 403.979C241.19 399.132 234.31 401.56 228.04 411.027C222.67 419.14 220.69 427.977 224.15 431.264C227.82 434.302 235.97 430.933 242.91 424.215C251 416.36 252.28 408.96 246.79 403.979Z" fill="#F7ECDA"/>
<path d="M213.09 386.649C220.17 388.501 222.29 395.675 218.52 406.421C215.29 415.622 209.52 422.415 204.9 421.437C200.38 420.151 198.26 411.382 199.48 401.676C200.9 390.344 206 384.961 213.09 386.649Z" fill="#F7ECDA"/>
<path d="M232.31 390.674C224.72 386.794 217.58 391.444 212.99 403.803C209.05 414.386 209.14 424.846 213.91 427.567C218.84 429.948 227.16 423.912 233.23 414.438C240.32 403.362 239.81 394.729 232.31 390.674Z" fill="white"/>
<path d="M220.26 414.957C218.01 413.791 214.15 416.017 211.93 422.558C210.26 427.476 210.33 431.187 211.93 432.098C213.53 433.01 216.49 430.847 219.28 426.533C223 420.83 222.47 416.218 220.26 414.957Z" fill="#CC8D54"/>
<path d="M230.42 424.427C229.21 423.017 226.15 423.491 223.17 427.359C220.93 430.28 220.12 432.87 220.97 433.973C221.82 435.075 224.27 434.358 227.11 432.165C230.88 429.2 231.59 425.882 230.42 424.427Z" fill="#CC8D54"/>
<path d="M206.68 412.201C208.42 412.449 209.86 415.437 208.75 420.226C207.92 423.86 206.51 426.028 205.21 425.91C203.91 425.791 203 423.246 203 419.535C202.9 414.531 204.93 411.985 206.68 412.201Z" fill="#CC8D54"/>
<path d="M286.2 443.43C290.89 449.233 288.54 456.371 279.38 462.868C271.53 468.432 262.98 470.473 259.8 466.888C256.87 463.096 260.12 454.641 266.63 447.461C274.22 439.068 281.38 437.742 286.2 443.43Z" fill="#F7ECDA"/>
<path d="M303.46 477.342C301.66 469.929 294.7 467.719 284.25 471.667C275.31 475.039 268.71 481.091 269.66 485.918C270.92 490.651 279.43 492.882 288.87 491.594C299.88 490.117 305.1 484.808 303.46 477.342Z" fill="#F7ECDA"/>
<path d="M299.46 458.002C303.24 465.862 298.72 473.256 286.67 478.01C276.36 482.09 266.17 481.997 263.52 477.057C261.2 471.951 267.09 463.335 276.31 457.049C287.07 449.717 295.51 450.234 299.46 458.002Z" fill="white"/>
<path d="M275.16 469.994C276.26 472.443 274.16 476.645 267.99 479.061C263.36 480.89 259.86 480.803 258.99 479.061C258.12 477.32 260.17 474.087 264.24 471.061C269.62 466.99 274 467.599 275.16 469.994Z" fill="#CC8D54"/>
<path d="M265.75 459.73C267.03 461.057 266.59 464.415 263.08 467.684C260.43 470.142 258.08 471.03 257.08 470.098C256.08 469.165 256.73 466.477 258.73 463.361C261.42 459.225 264.43 458.457 265.75 459.73Z" fill="#CC8D54"/>
<path d="M277.9 483.817C277.67 481.796 274.9 480.124 270.46 481.413C267.1 482.377 265.08 484.015 265.19 485.536C265.3 487.058 267.67 488.092 271.13 488.15C275.74 488.208 278.08 485.85 277.9 483.817Z" fill="#CC8D54"/>
</g>
<mask id="mask0_3_73" style="mask-type:luminance" maskUnits="userSpaceOnUse" x="170" y="420" width="103" height="103">
<path d="M229.997 420L272.423 462.426L212.426 522.423L170 479.997L229.997 420Z" fill="white"/>
</mask>
<g mask="url(#mask0_3_73)">
<path d="M192.53 469.791L192.124 469.384C191.557 468.817 191.273 468.151 191.273 467.387C191.273 466.623 191.557 465.957 192.124 465.39L196.108 461.405C196.293 461.22 196.5 461.128 196.728 461.128C196.956 461.128 197.162 461.22 197.347 461.405C197.532 461.59 197.626 461.798 197.629 462.029C197.632 462.26 197.541 462.468 197.356 462.653L193.372 466.638C193.162 466.848 193.057 467.097 193.057 467.387C193.057 467.677 193.162 467.926 193.372 468.136L193.779 468.543C193.963 468.727 194.054 468.935 194.051 469.167C194.048 469.398 193.954 469.606 193.769 469.791C193.584 469.976 193.378 470.068 193.15 470.068C192.922 470.068 192.715 469.976 192.53 469.791Z" fill="#7C51A1"/>
<path d="M198.984 468.071C199.396 467.658 199.393 467.242 198.974 466.823C198.789 466.638 198.583 466.546 198.355 466.546C198.127 466.546 197.92 466.638 197.735 466.823L194.269 470.29C194.084 470.475 193.991 470.681 193.991 470.909C193.991 471.137 194.084 471.344 194.269 471.529C194.453 471.714 194.661 471.807 194.893 471.811C195.124 471.814 195.332 471.723 195.517 471.538L198.984 468.071ZM201.267 465.612C201.267 465.914 201.162 466.17 200.953 466.379C200.743 466.589 200.487 466.693 200.185 466.693C199.883 466.693 199.628 466.589 199.418 466.379C199.209 466.17 199.104 465.914 199.104 465.612C199.104 465.31 199.209 465.054 199.418 464.844C199.628 464.635 199.883 464.53 200.185 464.53C200.487 464.53 200.743 464.635 200.953 464.844C201.162 465.054 201.267 465.31 201.267 465.612Z" fill="#2C2929"/>
<path d="M197.745 475.042C197.079 474.376 196.748 473.589 196.751 472.68C196.754 471.771 197.088 470.983 197.754 470.317C198.42 469.652 199.205 469.319 200.111 469.319C201.017 469.319 201.803 469.652 202.469 470.317C203.134 470.983 203.469 471.77 203.472 472.68C203.475 473.589 203.144 474.376 202.478 475.042L198.863 478.657C198.678 478.842 198.469 478.934 198.235 478.934C198 478.934 197.791 478.842 197.606 478.657C197.421 478.472 197.33 478.264 197.333 478.033C197.336 477.801 197.43 477.593 197.615 477.409L201.23 473.794C201.538 473.486 201.69 473.114 201.688 472.68C201.684 472.245 201.529 471.874 201.221 471.566C200.913 471.257 200.543 471.103 200.111 471.103C199.68 471.103 199.31 471.257 199.002 471.566C198.694 471.874 198.538 472.245 198.535 472.68C198.532 473.114 198.684 473.485 198.993 473.794C199.178 473.979 199.272 474.187 199.275 474.418C199.278 474.649 199.187 474.857 199.002 475.042C198.817 475.227 198.607 475.319 198.373 475.319C198.139 475.319 197.93 475.227 197.745 475.042Z" fill="#2C2929"/>
<path d="M205.945 475.069L203.874 477.14C203.664 477.35 203.56 477.599 203.56 477.889C203.56 478.179 203.664 478.428 203.874 478.638C204.083 478.848 204.331 478.951 204.618 478.948C204.905 478.945 205.153 478.838 205.362 478.629L207.452 476.539C207.637 476.354 207.845 476.264 208.076 476.267C208.307 476.27 208.515 476.364 208.7 476.549C208.885 476.734 208.977 476.94 208.977 477.168C208.977 477.396 208.885 477.603 208.7 477.787L206.611 479.877C206.05 480.438 205.385 480.72 204.618 480.723C203.851 480.726 203.187 480.447 202.626 479.886C202.059 479.319 201.775 478.653 201.775 477.889C201.775 477.125 202.059 476.459 202.626 475.892L204.697 473.821C204.882 473.636 205.09 473.542 205.321 473.539C205.552 473.536 205.76 473.627 205.945 473.812C206.13 473.997 206.222 474.206 206.222 474.441C206.222 474.675 206.13 474.884 205.945 475.069Z" fill="#2C2929"/>
<path d="M210.456 479.544C210.869 479.131 210.866 478.715 210.447 478.296C210.262 478.111 210.056 478.018 209.828 478.018C209.6 478.018 209.393 478.111 209.208 478.296L205.741 481.763C205.557 481.948 205.464 482.154 205.464 482.382C205.464 482.61 205.557 482.817 205.741 483.002C205.926 483.187 206.134 483.28 206.366 483.284C206.596 483.287 206.805 483.196 206.99 483.011L210.456 479.544ZM212.74 477.085C212.74 477.387 212.635 477.643 212.426 477.852C212.216 478.062 211.96 478.166 211.658 478.166C211.356 478.166 211.101 478.062 210.891 477.852C210.681 477.642 210.577 477.387 210.577 477.085C210.577 476.783 210.681 476.527 210.891 476.317C211.1 476.108 211.356 476.003 211.658 476.003C211.96 476.003 212.216 476.108 212.426 476.317C212.635 476.527 212.74 476.783 212.74 477.085Z" fill="#2C2929"/>
<path d="M212.712 483.02C212.404 482.712 212.033 482.559 211.598 482.562C211.164 482.565 210.792 482.721 210.484 483.029C210.176 483.337 210.022 483.707 210.022 484.139C210.022 484.57 210.176 484.94 210.484 485.248C210.792 485.556 211.164 485.712 211.598 485.715C212.033 485.718 212.404 485.566 212.712 485.257L216.336 481.633C216.515 481.455 216.721 481.365 216.956 481.365C217.19 481.365 217.396 481.454 217.575 481.633C217.76 481.818 217.854 482.026 217.857 482.257C217.86 482.488 217.769 482.696 217.584 482.881L213.96 486.505C213.301 487.165 212.513 487.493 211.598 487.49C210.683 487.487 209.895 487.156 209.236 486.496C208.576 485.837 208.247 485.051 208.247 484.139C208.247 483.226 208.576 482.441 209.236 481.781C209.902 481.115 210.689 480.781 211.598 480.778C212.507 480.775 213.295 481.106 213.96 481.772C214.145 481.957 214.238 482.166 214.238 482.401C214.238 482.635 214.145 482.844 213.96 483.029C213.775 483.214 213.567 483.305 213.336 483.302C213.105 483.299 212.897 483.205 212.712 483.02Z" fill="#2C2929"/>
<path d="M214.506 491.766L214.099 491.359C213.532 490.792 213.248 490.126 213.248 489.362C213.248 488.598 213.532 487.932 214.099 487.365L218.084 483.38C218.268 483.196 218.475 483.103 218.703 483.103C218.931 483.103 219.137 483.196 219.322 483.381C219.507 483.565 219.601 483.773 219.604 484.004C219.607 484.236 219.517 484.444 219.332 484.629L215.347 488.613C215.137 488.823 215.032 489.072 215.033 489.362C215.033 489.652 215.137 489.901 215.347 490.111L215.754 490.518C215.939 490.703 216.029 490.911 216.026 491.142C216.023 491.373 215.929 491.581 215.745 491.766C215.56 491.951 215.353 492.043 215.125 492.043C214.897 492.043 214.691 491.951 214.506 491.766Z" fill="#7C51A1"/>
<path d="M217.963 495.261C217.298 494.595 216.966 493.808 216.969 492.898C216.973 491.989 217.307 491.202 217.973 490.536C218.638 489.871 219.424 489.538 220.33 489.538C221.236 489.538 222.022 489.871 222.688 490.536C223.353 491.202 223.688 491.989 223.691 492.898C223.694 493.807 223.363 494.595 222.697 495.261L220.968 496.989C220.783 497.174 220.575 497.265 220.344 497.262C220.113 497.259 219.905 497.165 219.72 496.98C219.535 496.795 219.443 496.589 219.443 496.361C219.442 496.133 219.535 495.926 219.72 495.741L221.449 494.012C221.757 493.704 221.909 493.333 221.907 492.898C221.903 492.464 221.748 492.092 221.44 491.784C221.131 491.476 220.762 491.322 220.33 491.322C219.898 491.322 219.529 491.476 219.221 491.784C218.912 492.093 218.757 492.464 218.754 492.898C218.751 493.333 218.903 493.704 219.212 494.012C219.396 494.197 219.49 494.405 219.493 494.636C219.496 494.868 219.406 495.076 219.221 495.261C219.036 495.445 218.826 495.538 218.592 495.538C218.358 495.538 218.148 495.445 217.963 495.261Z" fill="#2C2929"/>
<path d="M227.93 495.741C228.595 496.407 228.928 497.196 228.928 498.108C228.928 499.02 228.595 499.809 227.93 500.475C227.27 501.134 226.483 501.462 225.567 501.459C224.652 501.456 223.865 501.125 223.205 500.466C222.546 499.806 222.216 499.02 222.216 498.108C222.216 497.196 222.546 496.41 223.205 495.75L226.829 492.126C227.008 491.948 227.215 491.858 227.449 491.858C227.683 491.858 227.889 491.948 228.068 492.126C228.253 492.311 228.347 492.519 228.35 492.75C228.353 492.982 228.262 493.19 228.078 493.374L224.453 496.999C224.145 497.307 223.991 497.676 223.991 498.108C223.991 498.539 224.145 498.909 224.453 499.217C224.762 499.525 225.133 499.681 225.567 499.684C226.002 499.687 226.373 499.535 226.681 499.227C226.99 498.918 227.144 498.545 227.144 498.108C227.144 497.67 226.99 497.297 226.681 496.989C226.497 496.804 226.404 496.598 226.404 496.37C226.404 496.142 226.497 495.935 226.681 495.75C226.866 495.566 227.074 495.472 227.306 495.469C227.537 495.465 227.745 495.556 227.93 495.741Z" fill="#2C2929"/>
<path d="M224.873 503.231C224.917 503.261 224.876 503.276 224.86 503.291C224.7 503.453 224.538 503.614 224.377 503.775C224.119 504.033 223.86 504.291 223.604 504.55C223.574 504.581 223.555 504.586 223.53 504.55C223.525 504.543 223.518 504.537 223.512 504.531C215.401 496.42 207.289 488.308 199.177 480.198C199.131 480.153 199.131 480.132 199.177 480.087C199.59 479.678 200 479.265 200.412 478.855C200.427 478.841 200.441 478.788 200.478 478.836C200.474 478.841 200.47 478.845 200.466 478.849C200.058 479.255 199.65 479.662 199.242 480.068C199.211 480.098 199.205 480.121 199.241 480.15C199.259 480.165 199.273 480.182 199.289 480.198C205.172 486.082 211.055 491.966 216.938 497.85C219.127 500.039 221.316 502.228 223.505 504.417C223.521 504.433 223.538 504.448 223.553 504.465C223.58 504.497 223.603 504.491 223.63 504.463C224.036 504.055 224.443 503.647 224.849 503.24C224.857 503.237 224.865 503.234 224.873 503.231Z" fill="#7C51A1"/>
<path d="M200.466 478.849C200.47 478.845 200.474 478.841 200.478 478.836L224.861 503.219C224.856 503.225 224.852 503.23 224.847 503.236C224.818 503.205 224.79 503.173 224.76 503.143C216.688 495.071 208.616 486.999 200.545 478.927C200.519 478.901 200.492 478.875 200.466 478.849Z" fill="#7C51A1"/>
<path d="M224.847 503.236C224.852 503.23 224.856 503.225 224.861 503.219L224.873 503.231C224.865 503.234 224.857 503.237 224.849 503.24L224.847 503.236Z" fill="#7C51A1"/>
<path d="M218.078 497.74C218.078 497.74 218.078 497.74 218.078 497.741C218.167 497.652 218.258 497.566 218.343 497.474C218.415 497.398 218.415 497.315 218.348 497.268C218.283 497.221 218.217 497.246 218.169 497.292C217.989 497.465 217.812 497.642 217.64 497.824C217.571 497.897 217.577 497.971 217.634 498.021C217.687 498.067 217.753 498.06 217.824 497.993C217.911 497.911 217.993 497.825 218.078 497.74ZM220.759 500.296C220.759 500.296 220.758 500.296 220.758 500.295C220.826 500.227 220.898 500.162 220.962 500.09C221.023 500.021 221.026 499.945 220.98 499.898C220.93 499.847 220.847 499.846 220.781 499.91C220.626 500.061 220.465 500.206 220.327 500.373C220.238 500.48 220.237 500.589 220.321 500.7C220.36 500.752 220.408 500.799 220.457 500.841C220.517 500.893 220.589 500.887 220.641 500.835C220.693 500.783 220.695 500.715 220.644 500.651C220.621 500.622 220.595 500.595 220.567 500.571C220.534 500.542 220.532 500.52 220.565 500.489C220.632 500.427 220.695 500.361 220.759 500.296ZM212.2 491.977C212.201 491.978 212.201 491.978 212.202 491.979C212.128 492.054 212.051 492.126 211.98 492.203C211.932 492.255 211.938 492.316 211.982 492.366C212.027 492.416 212.085 492.426 212.144 492.389C212.168 492.374 212.189 492.354 212.209 492.334C212.32 492.224 212.433 492.115 212.54 492.002C212.589 491.95 212.624 491.923 212.692 491.98C212.756 492.034 212.827 492.017 212.871 491.958C212.912 491.903 212.906 491.825 212.855 491.774C212.769 491.687 212.682 491.6 212.595 491.514C212.532 491.451 212.456 491.443 212.399 491.492C212.333 491.549 212.327 491.618 212.393 491.693C212.428 491.733 212.424 491.756 212.388 491.79C212.323 491.85 212.262 491.914 212.2 491.977ZM200.581 480.582C200.432 480.443 200.459 480.232 200.636 480.156C200.741 480.111 200.837 480.137 200.917 480.231C200.992 480.32 201.05 480.337 201.121 480.293C201.199 480.244 201.205 480.138 201.136 480.054C201.074 479.978 200.996 479.935 200.903 479.906C200.648 479.826 200.357 479.956 200.255 480.2C200.161 480.426 200.248 480.7 200.449 480.814C200.549 480.87 200.66 480.814 200.661 480.707C200.661 480.649 200.619 480.617 200.581 480.582ZM206.573 486.574C206.478 486.486 206.45 486.389 206.49 486.284C206.524 486.197 206.589 486.147 206.68 486.132C206.777 486.117 206.863 486.144 206.919 486.228C206.99 486.336 207.105 486.332 207.163 486.223C207.2 486.154 207.163 486.089 207.117 486.036C206.899 485.792 206.53 485.808 206.32 486.068C206.132 486.301 206.191 486.668 206.438 486.805C206.517 486.849 206.582 486.835 206.63 486.762C206.672 486.698 206.658 486.653 206.573 486.574ZM223.908 502.826C223.908 502.826 223.909 502.825 223.909 502.825C223.874 502.792 223.843 502.751 223.801 502.729C223.684 502.666 223.526 502.694 223.428 502.788C223.317 502.896 223.297 502.999 223.359 503.144C223.376 503.183 223.396 503.221 223.412 503.261C223.423 503.288 223.427 503.323 223.404 503.341C223.377 503.361 223.344 503.345 223.32 503.322C223.272 503.278 223.228 503.229 223.179 503.187C223.118 503.134 223.057 503.148 223.004 503.2C222.946 503.255 222.943 503.313 222.995 503.374C223.05 503.439 223.112 503.498 223.18 503.551C223.311 503.653 223.45 503.654 223.575 503.55C223.706 503.442 223.732 503.316 223.655 503.162C223.627 503.106 223.577 503.03 223.624 502.992C223.663 502.961 223.725 503.029 223.769 503.07C223.829 503.125 223.919 503.126 223.961 503.078C224.031 502.999 224.03 502.948 223.956 502.874L223.908 502.826ZM209.577 488.998C209.632 488.921 209.711 488.876 209.747 488.795C209.77 488.744 209.779 488.694 209.73 488.647C209.683 488.601 209.631 488.606 209.581 488.631C209.549 488.646 209.52 488.673 209.494 488.698C209.352 488.838 209.211 488.98 209.071 489.121C209.041 489.151 209.012 489.183 208.987 489.218C208.947 489.273 208.948 489.332 208.996 489.381C209.045 489.431 209.102 489.427 209.159 489.389C209.218 489.348 209.263 489.292 209.316 489.244C209.335 489.226 209.351 489.188 209.383 489.207C209.416 489.226 209.431 489.263 209.426 489.303C209.422 489.342 209.396 489.369 209.37 489.396C209.33 489.437 209.285 489.473 209.259 489.525C209.23 489.582 209.245 489.632 209.288 489.672C209.329 489.71 209.383 489.727 209.429 489.69C209.535 489.605 209.647 489.517 209.679 489.376C209.694 489.31 209.724 489.286 209.783 489.265C209.902 489.223 209.989 489.143 210.024 489.018C210.046 488.937 209.992 488.876 209.909 488.883C209.851 488.888 209.809 488.92 209.772 488.962C209.72 489.022 209.659 489.044 209.577 488.998ZM214.911 494.699L214.912 494.7C214.841 494.77 214.768 494.838 214.702 494.912C214.655 494.964 214.651 495.026 214.698 495.083C214.739 495.134 214.814 495.139 214.876 495.094C214.91 495.069 214.942 495.039 214.968 495.006C215.01 494.954 215.037 494.966 215.083 495.006C215.149 495.064 215.153 495.106 215.082 495.157C215.061 495.172 215.044 495.192 215.028 495.212C214.972 495.278 214.966 495.346 215.011 495.397C215.058 495.451 215.133 495.458 215.2 495.394C215.345 495.258 215.497 495.128 215.619 494.97C215.739 494.815 215.709 494.607 215.562 494.48C215.448 494.382 215.224 494.396 215.098 494.512C215.033 494.572 214.973 494.636 214.911 494.699ZM203.989 482.908C203.793 482.711 203.466 482.72 203.261 482.927C203.064 483.125 203.062 483.448 203.256 483.643C203.447 483.834 203.773 483.828 203.971 483.63C204.174 483.427 204.182 483.101 203.989 482.908ZM224.847 503.236L224.849 503.24C224.443 503.647 224.036 504.055 223.631 504.463C223.603 504.491 223.58 504.497 223.553 504.465C223.538 504.448 223.521 504.433 223.505 504.417C221.316 502.228 219.127 500.039 216.938 497.85C211.055 491.966 205.172 486.082 199.289 480.198C199.273 480.182 199.258 480.165 199.241 480.15C199.205 480.121 199.211 480.098 199.242 480.068C199.65 479.662 200.058 479.255 200.466 478.849C200.492 478.875 200.518 478.901 200.545 478.927C208.616 486.999 216.688 495.071 224.76 503.143C224.79 503.173 224.818 503.205 224.847 503.236Z" fill="#7C51A1"/>
<path d="M203.789 483.444C203.691 483.542 203.539 483.544 203.445 483.448C203.352 483.354 203.354 483.195 203.448 483.101C203.539 483.009 203.705 483.008 203.796 483.098C203.89 483.192 203.887 483.345 203.789 483.444Z" fill="#7C51A1"/>
<path d="M215.353 494.896C215.322 494.865 215.29 494.837 215.263 494.805C215.247 494.786 215.199 494.767 215.226 494.743C215.264 494.71 215.314 494.675 215.371 494.693C215.409 494.705 215.429 494.738 215.413 494.781C215.399 494.82 215.388 494.862 215.353 494.896Z" fill="#7C51A1"/>
<path d="M222.24 472.274C227.311 465.19 232.307 458.209 237.341 451.175C236.915 450.872 236.516 450.589 236.077 450.277C231.037 457.311 226.026 464.305 220.974 471.355C221.411 471.673 221.809 471.962 222.24 472.274Z" fill="#232525"/>
<path d="M238.27 447.052C237.389 444.614 236.509 442.18 235.602 439.672C235.13 439.867 234.701 440.045 234.179 440.26C234.244 440.46 234.318 440.726 234.413 440.984C235.037 442.698 235.667 444.409 236.293 446.123C236.747 447.364 236.846 447.414 238.27 447.052Z" fill="#232525"/>
<path d="M236.764 447.744C236.826 447.829 236.854 447.9 236.88 447.9C237.511 447.88 238.142 447.853 238.773 447.827C238.732 447.687 238.692 447.425 238.651 447.425C238.106 447.421 237.559 447.442 237.016 447.49C236.923 447.498 236.844 447.66 236.764 447.744Z" fill="#232525"/>
<path d="M237.971 450.844C237.73 450.617 237.518 450.343 237.242 450.175C236.918 449.979 236.539 449.874 236.184 449.729C236.43 450.008 236.653 450.312 236.928 450.558C237.165 450.77 237.461 450.915 237.732 451.089C237.811 451.008 237.891 450.926 237.971 450.844Z" fill="#232525"/>
<path d="M236.738 448.806C236.734 449.31 237.935 450.242 238.224 450.166C238.316 450.142 238.427 449.837 238.419 449.833C237.866 449.479 237.302 449.143 236.738 448.806Z" fill="#232525"/>
<path d="M236.818 448.602C237.464 448.685 238.109 448.772 238.757 448.841C238.798 448.845 238.894 448.704 238.894 448.631C238.893 448.559 238.81 448.432 238.75 448.423C238.125 448.335 237.497 448.266 236.869 448.191C236.852 448.328 236.835 448.465 236.818 448.602Z" fill="#232525"/>
<path d="M229.6 473.388C229.609 473.344 229.622 473.301 229.626 473.257C229.851 470.947 230.076 468.637 230.295 466.326C230.308 466.181 230.36 466.078 230.461 465.977C232.377 464.066 234.287 462.151 236.206 460.244C236.359 460.092 236.338 460.02 236.199 459.883C234.972 458.666 233.749 457.444 232.533 456.215C232.392 456.073 232.326 456.078 232.188 456.217C230.28 458.135 228.364 460.046 226.453 461.962C226.346 462.07 226.238 462.123 226.083 462.134C225.657 462.164 225.231 462.213 224.805 462.255C223.348 462.398 221.891 462.543 220.434 462.687C220.397 462.685 220.36 462.68 220.324 462.684C219.083 462.804 217.843 462.942 216.601 463.041C215.232 463.15 214.176 463.773 213.426 464.909C212.284 466.638 212.279 468.867 213.933 470.536C216.45 473.077 218.986 475.598 221.516 478.125C221.766 478.374 222.009 478.628 222.288 478.848C224.265 480.406 226.66 479.868 228.098 478.548C228.873 477.837 229.295 476.95 229.376 475.899C229.44 475.061 229.561 474.228 229.6 473.388ZM228.911 480.227C228.668 480.323 228.489 480.518 228.264 480.646C226.062 481.897 223.873 481.792 221.691 480.592C221.175 480.308 220.751 479.916 220.338 479.502C217.723 476.877 215.093 474.266 212.486 471.633C211.88 471.02 211.497 470.247 211.24 469.429C210.663 467.6 210.754 465.814 211.792 464.168C212.855 462.481 214.388 461.471 216.401 461.27C219.376 460.974 222.353 460.691 225.33 460.407C225.453 460.395 225.538 460.342 225.62 460.26C227.522 458.356 229.424 456.452 231.331 454.552C231.445 454.439 231.441 454.373 231.327 454.269C231.133 454.091 230.957 453.893 230.764 453.715C230.658 453.617 230.648 453.554 230.76 453.448C231.08 453.142 231.396 452.829 231.7 452.506C231.819 452.381 231.884 452.391 232.001 452.51C233.006 453.524 234.018 454.532 235.028 455.542C236.649 457.164 238.268 458.787 239.895 460.402C240.041 460.547 240.034 460.619 239.891 460.752C239.578 461.044 239.278 461.351 238.981 461.66C238.883 461.762 238.819 461.782 238.714 461.665C238.543 461.475 238.344 461.311 238.178 461.118C238.048 460.969 237.972 460.997 237.845 461.125C236.02 462.957 234.195 464.789 232.356 466.608C232.121 466.841 232.016 467.083 231.986 467.407C231.715 470.317 231.43 473.226 231.149 476.135C231.035 477.314 230.557 478.339 229.822 479.254C229.796 479.286 229.746 479.309 229.773 479.365L229.677 479.461C229.405 479.636 229.179 479.857 229.007 480.131L228.911 480.227Z" fill="#282828"/>
<path d="M242.673 450.861C242.772 451.239 242.841 451.617 242.699 452.003C242.478 452.603 242.065 452.984 241.426 453.066C240.785 453.148 240.267 452.92 239.894 452.377C239.423 451.691 239.612 450.776 240.204 450.286C240.809 449.784 241.669 449.817 242.284 450.36C242.331 450.402 242.364 450.472 242.443 450.473C242.52 450.602 242.596 450.731 242.673 450.861Z" fill="#9E76B4"/>
<path d="M229.007 480.131C229.179 479.857 229.405 479.636 229.677 479.461L229.007 480.131Z" fill="#575353"/>
<path d="M240.264 454.495C240.837 455.458 240.525 456.691 239.564 457.261C238.602 457.832 237.356 457.523 236.789 456.574C236.218 455.62 236.539 454.35 237.495 453.78C238.444 453.215 239.695 453.538 240.264 454.495Z" fill="#8D64AA"/>
<path d="M242.337 456.866C242.04 456.356 242.218 455.692 242.731 455.398C243.25 455.101 243.892 455.278 244.193 455.801C244.491 456.319 244.317 456.973 243.804 457.267C243.292 457.56 242.638 457.38 242.337 456.866Z" fill="#8D64AA"/>
<path d="M223.76 474.342C223.386 474.716 223.372 475.262 223.739 475.625C224.101 475.984 224.63 476.02 225.056 475.653C225.403 475.354 225.399 474.652 225.048 474.33C224.694 474.004 224.133 473.936 223.76 474.342ZM219.003 466.04C218.333 465.293 217.029 465.161 216.157 466.021C215.315 466.851 215.406 468.117 216.144 468.873C216.899 469.647 218.232 469.678 219.015 468.884C219.794 468.094 219.803 466.785 219.003 466.04ZM229.6 473.388C229.561 474.228 229.44 475.061 229.376 475.899C229.295 476.95 228.873 477.837 228.098 478.548C226.66 479.868 224.265 480.406 222.288 478.848C222.009 478.628 221.766 478.374 221.516 478.125C218.986 475.598 216.45 473.077 213.933 470.536C212.279 468.867 212.284 466.638 213.426 464.909C214.176 463.773 215.232 463.15 216.601 463.041C217.843 462.942 219.083 462.804 220.324 462.684C220.36 462.68 220.397 462.686 220.434 462.687C220.707 463.623 221.08 464.516 221.576 465.356C221.58 465.416 221.594 465.476 221.587 465.534C221.507 466.167 221.922 466.759 222.565 466.904C222.64 466.92 222.708 466.941 222.766 466.99C223.323 467.582 223.908 468.144 224.572 468.616C224.455 468.752 224.312 468.863 224.207 469.012C223.756 469.652 223.793 470.728 224.623 471.351C225.185 471.772 225.993 471.79 226.581 471.405C226.906 471.193 227.092 470.89 227.274 470.572C227.892 471.049 228.466 471.568 228.928 472.203C229.198 472.574 229.383 472.989 229.6 473.388Z" fill="#7C51A1"/>
<path d="M219.003 466.04C219.803 466.785 219.794 468.094 219.015 468.884C218.232 469.678 216.899 469.647 216.144 468.873C215.406 468.116 215.315 466.851 216.157 466.021C217.029 465.161 218.333 465.293 219.003 466.04Z" fill="#9E76B4"/>
<path d="M224.572 468.616C225.159 468.161 225.958 468.123 226.569 468.519C227.193 468.925 227.484 469.651 227.314 470.375C227.298 470.44 227.287 470.506 227.274 470.572C227.092 470.89 226.905 471.193 226.581 471.405C225.993 471.79 225.185 471.772 224.623 471.351C223.793 470.728 223.756 469.652 224.207 469.012C224.312 468.863 224.455 468.752 224.572 468.616Z" fill="#8D64AA"/>
<path d="M221.576 465.356C221.722 465.034 221.878 464.727 222.208 464.542C222.65 464.294 223.249 464.325 223.648 464.636C224.057 464.955 224.238 465.525 224.092 466.031C223.954 466.509 223.499 466.884 222.997 466.938C222.919 466.946 222.829 466.912 222.766 466.99C222.708 466.941 222.64 466.92 222.565 466.904C221.922 466.759 221.507 466.167 221.587 465.534C221.594 465.476 221.58 465.415 221.576 465.356Z" fill="#9E76B4"/>
<path d="M223.76 474.342C224.133 473.936 224.694 474.004 225.048 474.33C225.399 474.652 225.403 475.354 225.056 475.653C224.63 476.02 224.101 475.984 223.739 475.625C223.372 475.262 223.386 474.716 223.76 474.342Z" fill="#8D64AA"/>
<path d="M227.262 465.059C226.469 464.269 226.45 462.98 227.238 462.202C228.06 461.389 229.315 461.401 230.118 462.193C230.916 462.98 230.901 464.267 230.117 465.052C229.323 465.847 228.055 465.85 227.262 465.059Z" fill="#9E76B4"/>
</g>
</svg>
