<svg width="100%" height="100%" id="svg" viewBox="0 0 1440 590" xmlns="http://www.w3.org/2000/svg" class="transition duration-300 ease-in-out delay-150"><defs><linearGradient id="gradient" x1="0%" y1="50%" x2="100%" y2="50%"><stop offset="5%" stop-color="#77579e" style="--noir-inline-background-color: #5f467e;" data-noir-inline-background-color=""></stop><stop offset="95%" stop-color="#57659e" style="--noir-inline-background-color: #46517e;" data-noir-inline-background-color=""></stop></linearGradient></defs><path d="M 0,600 C 0,600 0,150 0,150 C 49.37169523050352,158.2848782478316 98.74339046100704,166.5697564956632 137,175 C 175.25660953899296,183.4302435043368 202.39813338647537,192.00585226517873 235,186 C 267.60186661352463,179.99414773482127 305.6640759930915,159.406834443622 351,162 C 396.3359240069085,164.593165556378 448.9455626411585,190.36680996033328 493,198 C 537.0544373588415,205.63319003966672 572.5536734422744,195.12592571504487 610,177 C 647.4463265577256,158.87407428495513 686.8397435897436,133.12948717948717 727,129 C 767.1602564102564,124.87051282051281 808.087352198751,142.3561255670064 847,155 C 885.912647801249,167.6438744329936 922.8108476152519,175.44601055248722 964,169 C 1005.1891523847481,162.55398944751278 1050.6692573402418,141.85983222304466 1094,135 C 1137.3307426597582,128.14016777695534 1178.5121230237808,135.11466055533413 1213,135 C 1247.4878769762192,134.88533944466587 1275.2822505646343,127.68152555561883 1312,129 C 1348.7177494353657,130.31847444438117 1394.3588747176827,140.1592372221906 1440,150 C 1440,150 1440,600 1440,600 Z" stroke="none" stroke-width="0" fill="url(#gradient)" fill-opacity="0.4" class="transition-all duration-300 ease-in-out delay-150 path-0"></path><defs><linearGradient id="gradient" x1="0%" y1="50%" x2="100%" y2="50%"><stop offset="5%" stop-color="#77579e" style="--noir-inline-background-color: #5f467e;" data-noir-inline-background-color=""></stop><stop offset="95%" stop-color="#57659e" style="--noir-inline-background-color: #46517e;" data-noir-inline-background-color=""></stop></linearGradient></defs><path d="M 0,600 C 0,600 0,300 0,300 C 31.711242384558446,314.0411860160565 63.42248476911689,328.0823720321129 101,322 C 138.5775152308831,315.9176279678871 182.02130330809086,289.7116978876046 230,274 C 277.97869669190914,258.2883021123954 330.4923019985196,253.07083641746857 372,271 C 413.5076980014804,288.92916358253143 444.00948869783065,330.0049564425212 475,338 C 505.99051130216935,345.9950435574788 537.4697432101578,320.9093378124466 584,296 C 630.5302567898422,271.0906621875534 692.1115384615383,246.3576923076923 742,251 C 791.8884615384617,255.6423076923077 830.0841029436885,289.6598929567842 858,316 C 885.9158970563115,342.3401070432158 903.5520497637077,361.0027358651711 944,337 C 984.4479502362923,312.9972641348289 1047.7076980014806,246.3291635825315 1097,249 C 1146.2923019985194,251.6708364174685 1181.6171582303705,323.68060980470307 1217,349 C 1252.3828417696295,374.31939019529693 1287.823669077037,352.94839719865627 1325,337 C 1362.176330922963,321.05160280134373 1401.0881654614814,310.52580140067187 1440,300 C 1440,300 1440,600 1440,600 Z" stroke="none" stroke-width="0" fill="url(#gradient)" fill-opacity="0.53" class="transition-all duration-300 ease-in-out delay-150 path-1"></path><defs><linearGradient id="gradient" x1="0%" y1="50%" x2="100%" y2="50%"><stop offset="5%" stop-color="#77579e" style="--noir-inline-background-color: #5f467e;" data-noir-inline-background-color=""></stop><stop offset="95%" stop-color="#57659e" style="--noir-inline-background-color: #46517e;" data-noir-inline-background-color=""></stop></linearGradient></defs><path d="M 0,600 C 0,600 0,450 0,450 C 32.824412116381026,435.6537711856365 65.64882423276205,421.307542371273 109,435 C 152.35117576723795,448.692457628727 206.22911518533283,490.4236017005447 248,479 C 289.77088481466717,467.5763982994553 319.4347150259067,402.99805082654825 361,401 C 402.5652849740933,399.00194917345175 456.0320247110403,459.58419499326226 498,485 C 539.9679752889597,510.41580500673774 570.4371861299323,500.66516920040243 610,486 C 649.5628138700677,471.33483079959757 698.2192307692308,451.75512820512813 741,436 C 783.7807692307692,420.24487179487187 820.6858907931447,408.31431797908493 858,421 C 895.3141092068553,433.68568202091507 933.0372060581906,470.9875998785325 965,483 C 996.9627939418094,495.0124001214675 1023.1652849740931,481.73528250678504 1063,472 C 1102.834715025907,462.26471749321496 1156.3016540454364,456.07127009432713 1206,447 C 1255.6983459545636,437.92872990567287 1301.628098844161,425.97963711590654 1340,426 C 1378.371901155839,426.02036288409346 1409.1859505779194,438.0101814420467 1440,450 C 1440,450 1440,600 1440,600 Z" stroke="none" stroke-width="0" fill="url(#gradient)" fill-opacity="1" class="transition-all duration-300 ease-in-out delay-150 path-2"></path></svg>