<svg width="460" height="729" viewBox="0 0 460 729" fill="none" xmlns="http://www.w3.org/2000/svg">
<path d="M265.579 608.055C238.935 447.255 212.684 288.817 186.229 129.156C176.589 130.789 167.556 132.321 157.627 134.004C184.001 293.731 210.227 452.549 236.664 612.645C246.653 611.06 255.737 609.617 265.579 608.055Z" fill="#212121"/>
<path d="M143.972 62.32C100.052 41.7267 56.2167 21.1747 11.0495 -0.00133378C7.38281 8.82133 4.04792 16.8467 0 26.5867C3.50364 28.3934 8.00469 30.9134 12.6677 33.0867C43.5989 47.4934 74.5713 61.8107 105.516 76.188C127.939 86.6067 129.92 85.944 143.972 62.32Z" fill="#212121"/>
<path d="M133.209 91.4013C135.143 91.7133 136.46 92.2813 136.795 91.9267C144.885 83.3213 152.872 74.616 160.877 65.9307C158.484 64.6134 154.495 61.6773 153.94 62.224C146.679 69.3867 139.727 76.896 133.172 84.7147C132.052 86.052 133.145 89.2453 133.209 91.4013Z" fill="#212121"/>
<path d="M190.175 116.443C183.991 116.625 177.565 115.815 171.687 117.248C164.804 118.925 158.397 122.559 151.784 125.343C158.727 125.781 165.705 126.852 172.601 126.463C178.535 126.128 184.376 124.128 190.257 122.863C190.229 120.724 190.203 118.583 190.175 116.443Z" fill="#212121"/>
<path d="M146.913 105.792C153.523 112.519 181.732 108.965 184.565 104.135C185.465 102.599 182.891 97.1027 182.727 97.1387C170.736 99.7827 158.828 102.803 146.913 105.792Z" fill="#212121"/>
<path d="M145.268 102.035C154.911 94.5907 164.603 87.2094 174.073 79.5534C174.68 79.0627 174.081 75.9213 173.108 74.9627C172.144 74.0133 169.371 73.4373 168.463 74.1213C159.02 81.2253 149.793 88.6173 140.507 95.9293C142.093 97.964 143.681 100 145.268 102.035Z" fill="#212121"/>
<path d="M377.665 525.428C377.211 524.731 376.819 523.983 376.292 523.344C348.699 489.813 321.115 456.275 293.443 422.812C291.701 420.707 291.028 418.664 291.032 415.993C291.092 365.375 291.02 314.756 291.18 264.137C291.193 260.123 289.973 259.445 286.317 259.461C253.977 259.599 221.637 259.613 189.299 259.443C185.547 259.424 184.741 260.368 184.751 264.039C184.887 314.657 184.823 365.277 184.892 415.896C184.896 418.737 184.171 420.885 182.273 423.064C177.016 429.103 172.033 435.381 166.953 441.575C149.583 462.751 132.217 483.929 114.849 505.108C114.347 505.581 113.786 506.007 113.351 506.536C98.5224 524.537 83.95 542.757 68.8224 560.504C52.1536 580.057 46.4303 602.275 51.5344 627.212C59.3093 665.195 88.7167 694.752 132.684 694.956C199.588 695.267 266.496 695.068 333.4 695.028C339.993 695.024 346.572 695.167 353.179 694.384C399.935 688.849 424.501 650.037 426.065 613.553C426.908 593.897 420.756 576.577 407.923 561.604C397.693 549.668 388.264 537.059 377.665 525.428ZM459.033 625C457.089 629.499 457.3 634.449 456.016 639.111C443.425 684.795 413.085 712.353 368.352 725.356C357.765 728.435 346.972 728.841 336.031 728.823C266.705 728.7 197.377 728.944 128.053 728.603C111.933 728.523 96.6479 723.356 82.4145 715.944C50.5891 699.369 28.164 674.543 20.1172 639.028C11.875 602.655 18.7797 569.004 42.7516 539.733C78.1964 496.452 113.836 453.329 149.452 410.187C150.933 408.393 151.344 406.576 151.343 404.401C151.32 354.053 151.3 303.704 151.389 253.355C151.396 250.343 150.479 249.52 147.583 249.651C142.671 249.871 137.736 249.569 132.821 249.767C130.121 249.875 129.152 249.175 129.221 246.291C129.418 237.999 129.448 229.693 129.211 221.401C129.118 218.169 130.118 217.449 133.232 217.464C159.953 217.591 186.675 217.536 213.397 217.536C256.292 217.536 299.187 217.595 342.081 217.436C345.924 217.423 346.792 218.472 346.663 222.123C346.377 230.129 346.479 238.155 346.628 246.168C346.677 248.829 346.092 249.937 343.159 249.78C338.391 249.524 333.58 249.969 328.824 249.628C325.14 249.364 324.504 250.759 324.511 254.124C324.617 302.504 324.699 350.884 324.444 399.263C324.411 405.469 326.227 410.051 330.109 414.729C365.019 456.815 399.739 499.059 434.503 541.265C448.593 558.371 455.829 578.251 458.209 600.084C458.292 600.849 457.943 601.824 459.033 602.216C459.033 603.06 459.033 603.903 459.033 604.747C457.741 610.655 457.683 616.561 459.033 622.468C459.033 623.312 459.033 624.156 459.033 625Z" fill="#252323"/>
<path d="M252.6 54.4667C258.913 58.1693 264.828 62.2533 268.053 69.2293C273.076 80.0946 272.647 90.6 265.276 100.144C257.891 109.707 248.016 113.532 235.901 111.285C220.601 108.447 210.987 93.8267 212.325 79.5253C213.696 64.8813 225.524 53.9387 240.821 52.9867C242.009 52.9133 243.373 53.4027 244.425 52.372C247.151 53.0707 249.875 53.7693 252.6 54.4667Z" fill="#9C65B9"/>
<path d="M459.033 622.468C457.683 616.561 457.741 610.655 459.033 604.747C459.033 610.655 459.033 616.561 459.033 622.468Z" fill="#4F4C4D"/>
<path d="M268.808 134.409C289.136 139.575 301.321 160.007 296.149 180.257C290.971 200.533 270.409 212.937 250.344 207.889C230.164 202.813 217.621 181.78 222.731 161.584C227.799 141.556 248.616 129.279 268.808 134.409Z" fill="#8A52AE"/>
<path d="M327.599 138.349C316.928 135.545 310.496 124.391 313.396 113.727C316.335 102.925 327.157 96.7774 338.059 99.7147C348.859 102.624 355.22 113.576 352.311 124.256C349.416 134.892 338.383 141.184 327.599 138.349Z" fill="#8A52AE"/>
<path d="M313.037 615.296C313.035 625.199 320.069 632.607 329.729 632.56C339.265 632.513 346.74 625.985 347.524 615.489C348.163 606.952 338.816 597.729 329.924 598.103C320.916 598.48 312.608 604.999 313.037 615.296ZM140.275 568.4C121.537 567.388 102.539 582.891 102.375 605.795C102.219 627.925 120.164 643.457 139.943 643.707C160.164 643.961 178.212 626.725 178.061 605.875C177.912 585.117 160.711 567.672 140.275 568.4ZM377.665 525.428C388.264 537.059 397.693 549.668 407.923 561.604C420.756 576.577 426.908 593.897 426.065 613.553C424.501 650.037 399.935 688.849 353.179 694.384C346.572 695.167 339.993 695.024 333.4 695.028C266.496 695.068 199.588 695.267 132.684 694.956C88.7167 694.752 59.3093 665.195 51.5344 627.212C46.4303 602.275 52.1536 580.057 68.8224 560.504C83.95 542.757 98.5224 524.537 113.351 506.536C113.786 506.007 114.347 505.581 114.849 505.108C130.839 513.892 147.592 520.767 165.277 525.316C166.113 526.045 167.096 526.661 167.763 527.52C175.077 536.957 188.413 539.299 198.829 532.701C200.039 531.936 201.204 531.305 202.629 531.199C217.831 531.655 232.993 531.347 248.039 528.809C248.281 532.161 247.853 535.511 248.439 538.884C250.935 553.313 265.66 567.06 284.88 564.316C297.891 562.457 308.82 552.008 311.505 539.131C312.988 532.028 311.444 525.553 309.652 518.932C324.128 517.077 338.595 516.357 353.12 518.636C361.584 519.965 369.525 523.017 377.665 525.428Z" fill="#7640A4"/>
<path d="M140.275 568.4C160.711 567.672 177.912 585.117 178.061 605.875C178.212 626.725 160.164 643.961 139.943 643.707C120.164 643.457 102.219 627.925 102.375 605.795C102.539 582.891 121.537 567.388 140.275 568.4Z" fill="#9C65B9"/>
<path d="M248.039 528.809C249.784 515.025 259.836 503.948 273.169 501.112C286.785 498.216 300.237 503.972 307.573 515.817C308.229 516.879 308.957 517.896 309.652 518.932C311.444 525.553 312.988 532.028 311.505 539.131C308.82 552.008 297.891 562.457 284.88 564.316C265.66 567.06 250.935 553.313 248.439 538.884C247.853 535.511 248.281 532.161 248.039 528.809Z" fill="#8A52AE"/>
<path d="M165.277 525.316C162.937 519.135 160.939 512.996 162.86 506.179C165.432 497.053 173.76 489.545 183.164 488.384C192.779 487.196 202.711 492.335 207.48 500.965C211.985 509.117 210.924 520.089 204.989 527.451C204.069 528.592 202.431 529.336 202.629 531.199C201.204 531.305 200.039 531.936 198.829 532.701C188.413 539.299 175.077 536.957 167.763 527.52C167.096 526.661 166.113 526.045 165.277 525.316Z" fill="#9C65B9"/>
<path d="M313.037 615.296C312.608 604.999 320.916 598.48 329.924 598.103C338.816 597.729 348.163 606.952 347.524 615.489C346.74 625.985 339.265 632.513 329.729 632.56C320.069 632.607 313.035 625.199 313.037 615.296Z" fill="#8A52AE"/>
<path d="M236.563 446.175C215.613 446.203 198.311 429.397 198.437 408.687C198.569 387.068 215.331 370.619 236.417 370.475C257.392 370.331 274.221 387.56 274.233 408.317C274.245 429.325 257.507 446.147 236.563 446.175Z" fill="#9C65B9"/>
</svg>
